<?xml version="1.0" standalone="no"?>
<!DOCTYPE svg PUBLIC "-//W3C//DTD SVG 1.1//EN" "http://www.w3.org/Graphics/SVG/1.1/DTD/svg11.dtd" >
<svg xmlns="http://www.w3.org/2000/svg">
<metadata>Generated by IcoMoon</metadata>
<defs>
<font id="icomoon" horiz-adv-x="1024">
<font-face units-per-em="1024" ascent="960" descent="-64" />
<missing-glyph horiz-adv-x="1024" />
<glyph unicode="&#x20;" horiz-adv-x="512" d="" />
<glyph unicode="&#xe900;" glyph-name="add-01" d="M942.080 519.68h-389.12v358.4c0 23.893-17.067 40.96-40.96 40.96s-40.96-17.067-40.96-40.96v-358.4h-389.12c-23.893 0-40.96-17.067-40.96-40.96s17.067-40.96 40.96-40.96h389.12v-423.253c0-23.893 17.067-40.96 40.96-40.96s40.96 17.067 40.96 40.96v426.667h389.12c23.893 0 40.96 17.067 40.96 40.96 0 20.48-17.067 37.547-40.96 37.547z" />
<glyph unicode="&#xe901;" glyph-name="agreement-01" d="M965.274 13.747c0-42.939-34.809-77.747-77.747-77.747v0h-763.264c-40.354 0.015-73.062 32.732-73.062 73.088 0 0.027 0 0.054 0 0.081v-0.004 877.773c0 40.351 32.711 73.062 73.062 73.062h767.949c40.351 0 73.062-32.711 73.062-73.062v0-873.216zM364.902 113.075l-7.987-2.637c0 7.987 0 13.133-2.637 21.12-2.611 2.611-2.611 18.483-18.483 21.12-15.872 2.739-29.005-10.496-47.616-31.616l-10.496-10.496v7.962c-2.739 13.363-2.739 26.496-5.376 39.731-2.611 15.77-10.496 21.12-18.483 21.12s-28.979 5.376-87.091-97.818c-2.637-8.013 0-15.872 5.376-18.509 0-2.611 2.714-2.611 5.35-2.611 5.376 0 7.987 2.611 10.496 7.987 16.531 30.108 34.924 56.108 55.874 79.794l-0.399-0.459v-31.616c2.739-21.248 2.739-34.355 15.872-39.731s26.496 7.987 31.642 13.133l18.483 13.133c5.376 7.987 10.496 13.107 18.483 21.12 1.245-2.721 1.971-5.903 1.971-9.254s-0.726-6.533-2.029-9.397l0.058 0.142c-2.611-7.987 0-18.483 5.376-23.859 10.496-5.376 21.248-2.739 42.342 7.987 3.786 2.213 6.29 6.258 6.29 10.888 0 1.9-0.422 3.702-1.177 5.317l0.032-0.077c-2.739 7.501-10.496 10.138-15.872 7.501zM406.016 88.397l142.234 56.397-88.141 88.013-54.093-144.384zM172.544 616.269h291.789c19.968 0 36.864 15.514 37.325 35.507 0.011 0.336 0.017 0.73 0.017 1.126 0 20.176-16.356 36.531-36.531 36.531-0.006 0-0.012 0-0.018 0h-291.788c-19.968 0-36.864-15.514-37.325-35.482-0.012-0.343-0.018-0.747-0.018-1.152 0-20.176 16.356-36.531 36.531-36.531 0.006 0 0.013 0 0.019 0h-0.001zM172.544 762.394h657.434c19.968 0 36.864 15.514 37.35 35.507 0.008 0.282 0.012 0.614 0.012 0.947 0 20.261-16.414 36.688-36.669 36.71h-657.333c-19.968 0-36.864-15.514-37.325-35.482-0.008-0.29-0.013-0.631-0.013-0.973 0-20.221 16.338-36.627 36.534-36.735h0.010zM428.723 505.523c0.012 0.343 0.018 0.747 0.018 1.152 0 20.176-16.356 36.531-36.531 36.531-0.006 0-0.013 0-0.019 0h-218.853c-19.968 0-36.864-15.514-37.325-35.507-0.011-0.336-0.017-0.73-0.017-1.126 0-20.176 16.356-36.531 36.531-36.531 0.006 0 0.012 0 0.018 0h218.725c19.866 0 36.762 15.514 37.453 35.482zM833.869 552.115c-6.843 6.823-16.286 11.041-26.714 11.041s-19.871-4.219-26.715-11.042l-44.543-44.543 88.96-88.806 44.518 44.288c6.829 6.802 11.055 16.213 11.055 26.611s-4.226 19.81-11.054 26.61l-0.001 0.001-35.507 35.84zM477.363 249.933l88.909-88.832 242.022 239.411-89.037 88.832-241.92-239.411z" />
<glyph unicode="&#xe902;" glyph-name="agreement-02" d="M731.776 731.2v-117.76l23.744 42.112c9.728 17.28 24.576 29.44 41.344 36.416v72.32l-65.088 65.152v-0.512l-65.152 65.152h0.512l-65.152 65.088h-521.664c-36.032 0-65.152-29.184-65.152-65.152v-814.336c0-35.968 29.12-65.152 65.152-65.152 0 0 279.808-0.704 474.432-0.64l10.304 65.728h-484.736v814.464h488.576v-119.488c0-23.936 19.456-43.392 43.456-43.392h119.424zM692.032 428.416c-2.368-4.108-3.764-9.034-3.764-14.287 0-10.474 5.554-19.65 13.878-24.745l0.127-0.072c13.376-7.936 30.464-3.2 38.208 10.496l102.528 181.952c2.371 4.115 3.769 9.050 3.769 14.312 0 10.486-5.555 19.675-13.883 24.784l-0.127 0.072c-4.015 2.421-8.862 3.853-14.044 3.853-10.37 0-19.401-5.736-24.092-14.208l-0.072-0.141-102.528-182.016zM628.288 124.288c-10.816-18.88-35.008-106.24-22.464-143.104l-11.2-19.456c-3.904-6.72-1.216-15.552 5.824-19.712 1.6-0.896 3.2-1.6 4.864-1.92 0.895-0.205 1.922-0.323 2.977-0.323 5.049 0 9.469 2.695 11.9 6.724l0.035 0.062 11.84 20.672c37.12 8.704 96.256 67.584 109.248 90.24l139.904 248.128-113.152 66.816-139.776-248.128zM973.376 603.84c-28.992 17.472-68.8 9.728-84.032-16.384l-102.592-181.952 113.088-66.816 102.528 181.952c14.72 26.112 0 65.728-28.992 83.2zM405.888 340.352h0.32c17.92 0 32.448 14.464 32.448 32.384v97.92h97.664c17.126 1.107 30.597 15.268 30.597 32.576s-13.471 31.469-30.501 32.571l-0.096 0.005h-97.664v97.792c0 17.921-14.527 32.448-32.448 32.448v0h-0.32c0 0 0 0 0 0-17.885 0-32.384-14.499-32.384-32.384 0-0.022 0-0.045 0-0.067v0.003-97.856h-97.728c-17.991 0-32.576-14.585-32.576-32.576s14.585-32.576 32.576-32.576h97.728v-97.856c0-17.92 14.464-32.384 32.384-32.384z" />
<glyph unicode="&#xe903;" glyph-name="agreement-03" d="M768 576v256h-640v-768h768v512zM224 592h192v-48h-192zM505.92 397.76l-16-16-13.6-13.76-192-192-60.32-16 16 60.32 221.76 221.6c3.795 3.72 8.983 6.032 14.711 6.080h0.009c5.743-0.012 10.943-2.332 14.721-6.081l14.719-14.719c3.771-3.765 6.104-8.97 6.104-14.72s-2.333-10.955-6.104-14.72v0zM608 688h-384v48h384zM848 112h-80v416h80z" />
<glyph unicode="&#xe904;" glyph-name="agreement-04" d="M512-64c-25.6 0-51.2 4.267-81.067 8.533l-25.6 4.267-25.6 81.067-64 25.6-76.8-38.4-25.6 17.067c-25.6 17.067-42.667 34.133-64 51.2-17.067 21.333-34.133 38.4-51.2 64l-17.067 21.333 38.4 76.8c-12.8 21.333-21.333 42.667-25.6 64l-81.067 25.6-4.267 25.6c-4.267 34.133-8.533 59.733-8.533 85.333s4.267 51.2 8.533 81.067l4.267 25.6 81.067 25.6 25.6 64-38.4 81.067 17.067 21.333c29.867 46.933 68.267 85.333 115.2 115.2l21.333 17.067 76.8-38.4c21.333 8.533 42.667 21.333 64 25.6l25.6 81.067 25.6 4.267c34.133 4.267 59.733 8.533 85.333 8.533s51.2-4.267 81.067-8.533l25.6-4.267 25.6-81.067 64-25.6 76.8 38.4 25.6-17.067c46.933-29.867 85.333-68.267 115.2-115.2l17.067-21.333-38.4-76.8c4.267-8.533 8.533-21.333 12.8-29.867h-405.333c-93.867 0-170.667-76.8-170.667-170.667s76.8-170.667 170.667-170.667v-341.333zM618.667 533.333h341.333c34.133 0 64-29.867 64-64s-29.867-64-64-64h-341.333c-34.133 0-64 29.867-64 64s29.867 64 64 64zM618.667 320h213.333c34.133 0 64-29.867 64-64s-29.867-64-64-64h-213.333c-34.133 0-64 29.867-64 64s29.867 64 64 64zM618.667 106.667h85.333c34.133 0 64-29.867 64-64s-29.867-64-64-64h-85.333c-34.133 0-64 29.867-64 64s29.867 64 64 64z" />
<glyph unicode="&#xe905;" glyph-name="authority-01" d="M761.173 717.653c-23.893 133.12-150.187 225.28-283.307 201.387s-245.76-126.293-221.867-262.827c3.413-30.72 20.48-75.093 34.133-105.813l-238.933-348.16c-10.24-13.653-13.653-37.547-10.24-51.2l10.24-58.027c-10.24 58.027 3.413-20.48 10.24-20.48h78.507c17.067 3.413 34.133 17.067 44.373 27.307l95.573 150.187 81.92-6.827 112.64 174.080c0 0 23.893 51.2 116.053 98.987 85.333 37.547 153.6 30.72 153.6 30.72 23.893 51.2 27.307 112.64 17.067 170.667v0zM116.053 178.347l-20.48-13.653 3.413 23.893 225.28 324.267 17.067-10.24-225.28-324.267zM645.12 649.387c-37.547-51.2-75.093-17.067-126.293 20.48s-98.987 58.027-61.44 112.64c37.547 51.2 109.227 64.853 160.427 27.307 51.2-34.133 61.44-109.227 27.307-160.427v0zM918.187 277.333c-3.413 17.067-10.24 30.72-20.48 47.787l37.547 54.613-51.2 51.2-54.613-37.547c-13.653 6.827-30.72 13.653-47.787 20.48l-13.653 68.267h-75.093l-10.24-68.267c-17.067-3.413-30.72-10.24-47.787-20.48l-54.613 40.96-54.613-54.613 37.547-54.613c-10.24-13.653-13.653-30.72-20.48-47.787l-64.853-13.653v-75.093l64.853-13.653c3.413-17.067 10.24-30.72 20.48-47.787l-37.547-54.613 51.2-51.2 54.613 37.547c13.653-6.827 30.72-13.653 47.787-20.48l13.653-64.853h75.093l13.653 64.853c17.067 3.413 30.72 10.24 47.787 20.48l54.613-37.547 51.2 51.2-37.547 54.613c6.827 13.653 13.653 30.72 20.48 47.787l64.853 13.653v75.093l-64.853 13.653zM730.453 140.8c-47.787 0-88.747 40.96-88.747 88.747s40.96 88.747 88.747 88.747c47.787 0 88.747-40.96 88.747-88.747 0-51.2-37.547-88.747-88.747-88.747v0z" />
<glyph unicode="&#xe906;" glyph-name="batch-01" d="M153.6 878.080v-860.16h716.8v860.16h-716.8zM798.72 89.6h-573.44v716.8h573.44v-716.8zM296.96 734.72h430.080v-143.36h-430.080v143.36zM440.32 519.68h286.72v-71.68h-286.72v71.68zM440.32 376.32h286.72v-71.68h-286.72v71.68zM440.32 232.96h286.72v-71.68h-286.72v71.68zM296.96 519.68h71.68v-358.4h-71.68v358.4z" />
<glyph unicode="&#xe907;" glyph-name="business-01" d="M303.787 635.733l150.187 112.64c40.96 30.72 95.573 37.547 143.36 20.48l235.52-88.747c17.067-6.827 30.72-10.24 47.787-10.24h37.547c10.24 0 20.48-10.24 20.48-20.48v-286.72c0-10.24-10.24-20.48-20.48-20.48h-51.2c-6.827 0-13.653-3.413-20.48-6.827l-10.24-10.24c-3.413-3.413-6.827 0-10.24 0l-276.48 334.507c-6.827 10.24-20.48 10.24-27.307 6.827l-126.293-68.267c-23.893-13.653-54.613-17.067-81.92-3.413-13.653 6.827-20.48 23.893-13.653 37.547-3.413-3.413 0 0 3.413 3.413v0zM109.227 338.773h44.373l30.72 37.547c27.307 34.133 78.507 37.547 112.64 10.24 13.653-10.24 20.48-23.893 27.307-40.96 27.307-6.827 47.787-27.307 54.613-54.613 20.48-6.827 37.547-17.067 44.373-37.547 17.067-3.413 30.72-10.24 44.373-23.893 23.893-27.307 30.72-64.853 10.24-98.987v0c20.48-13.653 47.787-10.24 64.853 10.24 6.827 10.24 10.24 23.893 6.827 34.133v0 0l3.413-3.413c17.067-17.067 40.96-17.067 58.027-6.827 13.653 10.24 20.48 27.307 17.067 44.373v0 0l3.413-3.413c17.067-17.067 40.96-17.067 58.027-6.827 13.653 10.24 23.893 27.307 20.48 44.373v0 0l3.413-3.413c13.653-13.653 37.547-17.067 54.613-6.827 20.48 13.653 27.307 40.96 17.067 61.44 0 3.413-3.413 6.827-6.827 6.827l-27.307 34.133-225.28 273.067c-3.413 3.413-6.827 3.413-10.24 3.413l-109.227-58.027c-34.133-20.48-75.093-23.893-112.64-10.24-20.48 6.827-37.547 23.893-44.373 44.373 0 23.893 0 44.373 13.653 64.853 3.413 6.827 0 10.24-3.413 13.653-3.413 0-3.413 0-6.827 0h-146.773c-10.24 0-20.48-10.24-20.48-20.48v-286.72c3.413-10.24 13.653-20.48 23.893-20.48v0zM266.24 359.253c-17.067 10.24-37.547 6.827-51.2-10.24l-30.72-37.547c-13.653-17.067-10.24-40.96 6.827-54.613v0l3.413-3.413c13.653-10.24 30.72-10.24 40.96-3.413 0 0 3.413 0 3.413 0v-3.413c-3.413-13.653 3.413-27.307 13.653-37.547h6.827c13.653-10.24 27.307-10.24 40.96-3.413 0 0 3.413 0 3.413 0v0c-3.413-13.653 3.413-27.307 13.653-34.133l3.413-3.413c13.653-10.24 27.307-10.24 40.96-3.413 0 0 3.413 0 3.413 0v0c0-10.24 6.827-17.067 13.653-23.893h3.413c17.067-13.653 40.96-10.24 54.613 6.827 0 3.413 3.413 3.413 3.413 3.413l6.827 10.24c10.24 17.067 6.827 37.547-6.827 47.787-10.24 10.24-27.307 13.653-40.96 6.827 0 0 0 0 0 0v0c0 20.48-17.067 37.547-37.547 40.96-6.827 0-10.24 0-17.067-3.413-6.827 0-3.413 3.413-3.413 3.413 6.827 20.48 0 40.96-20.48 51.2-10.24 3.413-23.893 3.413-34.133-3.413-3.413 0-3.413 3.413-3.413 3.413 6.827 17.067 0 40.96-17.067 51.2v0z" />
<glyph unicode="&#xe908;" glyph-name="card-01" d="M904.533 683.52h-163.84c10.24-122.88-85.333-119.467-85.333-119.467h-279.893c-92.16 0-92.16 92.16-92.16 119.467h-163.84c-27.307 0-51.2-20.48-51.2-47.787v-539.307c0-27.307 23.893-47.787 51.2-47.787h785.067c27.307 0 51.2 20.48 51.2 47.787v539.307c-3.413 27.307-23.893 47.787-51.2 47.787v0zM556.373 420.693h105.813c13.653 0 23.893-10.24 23.893-23.893s-10.24-23.893-23.893-23.893h-105.813c-13.653 0-23.893 10.24-23.893 23.893s10.24 23.893 23.893 23.893v0zM556.373 325.12h269.653c13.653 0 23.893-10.24 23.893-23.893s-10.24-23.893-23.893-23.893h-269.653c-13.653 0-23.893 10.24-23.893 23.893 0 17.067 10.24 23.893 23.893 23.893v0zM303.787 454.827c37.547 0 64.853-30.72 64.853-71.68 0-37.547-30.72-71.68-64.853-71.68-37.547 0-64.853 30.72-64.853 71.68-3.413 40.96 27.307 71.68 64.853 71.68v0zM433.493 185.173h-259.413v85.333c0 0 0 30.72 68.267 51.2l61.44-58.027 51.2 54.613c0 0 78.507-6.827 78.507-58.027v-75.093zM853.333 188.587h-296.96c-13.653 0-23.893 10.24-23.893 23.893s10.24 23.893 23.893 23.893h296.96c13.653 0 23.893-10.24 23.893-23.893 0-17.067-13.653-23.893-23.893-23.893v0zM327.68 680.107c3.413-64.853 51.2-71.68 51.2-71.68h266.24c44.373 0 51.2 51.2 51.2 71.68v0c0 92.16-85.333 78.507-85.333 78.507 0 92.16-98.987 88.747-98.987 88.747-105.813 0-105.813-88.747-105.813-88.747-81.92 3.413-78.507-75.093-78.507-78.507v0zM512 796.16c27.307 0 51.2-23.893 51.2-51.2s-23.893-51.2-51.2-51.2c-27.307 0-51.2 23.893-51.2 51.2s23.893 51.2 51.2 51.2v0z" />
<glyph unicode="&#xe909;" glyph-name="case-01" d="M1024 448l-157.013 344.747v34.133h-283.307c0 47.787-30.72 81.92-75.093 81.92-37.547 0-75.093-30.72-75.093-85.333h-279.893v-37.547l-153.6-337.92c0-98.987 71.68-191.147 184.32-191.147s184.32 92.16 184.32 191.147v0 0 0 0l-139.947 310.613h225.28v-655.36h-221.867c-85.333 0-116.053-44.373-116.053-116.053h795.307c0 68.267-34.133 116.053-116.053 116.053h-232.107v655.36h235.52l-143.36-310.613c0-98.987 71.68-191.147 184.32-191.147 116.053 0 184.32 92.16 184.32 191.147v0 0 0zM286.72 448c-61.44 0-150.187 0-208.213 0l105.813 266.24 102.4-266.24zM737.28 448l105.813 266.24 102.4-266.24c-64.853 0-150.187 0-208.213 0z" />
<glyph unicode="&#xe90a;" glyph-name="case-02" d="M287.309 143.234h480.45v560.525h-48.045c0-33.792-40.358-65.021-74.15-65.021h-245.19c-35.007 1.702-62.893 29.922-64.057 64.911l-0.003 0.11h-48.045v-560.525zM474.845 467.378l48.045 119.152 48.045-119.152h144.135l-96.090-95.289 23.862-143.014-119.312 71.587-119.472-71.587 23.862 143.014-96.090 95.289zM895.88 879.925h-128.12v-112.105h64.060v-672.631h-608.571v672.631h64.060v112.105h-128.12c-34.921-1.117-62.943-29.139-64.057-63.956l-0.003-0.104v-784.736c-0.031-0.734-0.049-1.595-0.049-2.46 0-33.112 26.102-60.128 58.852-61.595l0.132-0.005h736.691c36.071 0.701 65.442 28.462 68.684 63.785l0.020 0.275v784.736c0 33.792-14.093 64.060-48.045 64.060zM399.414 703.76h240.225c33.952 0 80.075 30.268 80.075 64.060v112.105h-128.12v64.060h-128.12v-64.060h-128.12v-112.105c1.197-34.887 29.173-62.863 63.948-64.057l0.112-0.003zM463.475 815.865h128.12v-48.045h-128.12z" />
<glyph unicode="&#xe90b;" glyph-name="case-03" d="M512 704h-380.16v32c0 35.413 28.16 64 63.573 64h221.867c52.053 0 94.72-43.093 94.72-96zM915.627 608l8.533 64h-824.32l8.533-64h807.253zM955.733 576l-63.573-480h-760.32l-63.573 480h887.467zM330.24 248.32c0 26.027-20.907 47.36-46.933 47.36s-46.933-20.907-46.933-47.36c0-26.027 20.907-47.36 46.933-47.36 25.6 0 46.933 20.907 46.933 47.36zM330.24 424.107c0 26.027-20.907 47.36-46.933 47.36s-46.933-21.333-46.933-47.36 20.907-47.36 46.933-47.36c25.6 0 46.933 20.907 46.933 47.36zM787.627 248.32c0 24.32-19.627 44.373-43.947 44.373h-297.387c-24.32 0-43.947-20.053-43.947-44.373s19.627-44.373 43.947-44.373h297.387c24.32 0 43.947 19.627 43.947 44.373zM787.627 424.107c0 24.32-19.627 44.373-43.947 44.373h-297.387c-24.32 0-43.947-20.053-43.947-44.373s19.627-44.373 43.947-44.373h297.387c24.32 0 43.947 19.627 43.947 44.373z" />
<glyph unicode="&#xe90c;" glyph-name="case-04" d="M171.008 841.92c-21.012 0.391-37.896 17.517-37.896 38.586 0 0.272 0.003 0.544 0.008 0.815l-0.001-0.040c0 21.696 17.024 39.296 37.888 39.296h747.136c-12.774 23.419-37.095 39.113-65.109 39.424h-682.027c-41.856 0-75.776-35.136-75.776-78.656v-117.952h18.944c31.36 0 56.832-26.368 56.832-59.072 0-32.512-25.472-59.008-56.832-59.008h-18.944v-39.232h18.944c31.36 0 56.832-26.368 56.832-59.008 0-32.704-25.472-59.072-56.832-59.072h-18.944v-39.36h18.944c31.36 0 56.832-26.368 56.832-59.072 0-32.512-25.472-58.944-56.832-58.944h-18.944v-39.36h18.944c31.36 0 56.832-26.496 56.832-59.008 0-32.64-25.472-59.072-56.832-59.072h-18.944v-39.168h18.944c31.36 0 56.832-26.432 56.832-59.136 0-32.64-25.472-58.944-56.832-58.944h-18.944c0-43.52 33.92-78.656 75.776-78.656h681.792c41.92 0 75.904 35.2 75.904 78.656v825.984h-757.696zM474.24 656.384c4.12 7.006 11.622 11.635 20.204 11.635 4.296 0 8.32-1.159 11.778-3.182l-0.11 0.060 141.184-81.6c11.136-6.4 14.976-20.672 8.64-31.872-4.153-6.998-11.671-11.616-20.267-11.616-4.294 0-8.318 1.152-11.782 3.164l0.112-0.060-141.312 81.6c-6.979 4.126-11.587 11.613-11.587 20.176 0 4.307 1.166 8.341 3.198 11.806l-0.060-0.11zM346.048 434.304c4.061 7.053 11.558 11.726 20.145 11.726 4.297 0 8.321-1.17 11.771-3.209l-0.108 0.059 141.312-81.664c6.56-4.21 10.844-11.467 10.844-19.724 0-12.901-10.459-23.36-23.36-23.36-3.94 0-7.651 0.975-10.907 2.697l0.127-0.061-141.248 81.728c-7.065 4.042-11.75 11.535-11.75 20.121 0 4.308 1.179 8.341 3.232 11.793l-0.059-0.106zM609.344 172.416h-304.32v23.168h24.064v23.36c0 12.864 10.368 23.296 23.296 23.296h209.792c12.928 0 23.296-10.432 23.296-23.296v-23.36h23.872v-23.168zM854.144 289.088c-6.062-10.569-17.281-17.574-30.135-17.574-6.469 0-12.523 1.774-17.704 4.862l0.159-0.088-246.528 155.648-29.184-50.432-141.376 81.6 81.664 141.312 141.312-81.6-29.12-50.432 258.112-135.616c10.533-6.119 17.503-17.349 17.503-30.206 0-6.436-1.746-12.465-4.791-17.637l0.089 0.163z" />
<glyph unicode="&#xe90d;" glyph-name="case-05" d="M737.1 274.7c47.8 0 86.5-38.8 86.5-86.5 0-47.8-38.8-86.5-86.5-86.5-47.8 0-86.5 38.8-86.5 86.5 0 47.8 38.7 86.5 86.5 86.5zM252.2 274.7c47.8 0 86.5-38.8 86.5-86.5 0-47.8-38.8-86.5-86.5-86.5s-86.5 38.8-86.5 86.5c0 47.8 38.7 86.5 86.5 86.5zM62 413.5v-173.1c0-18.9 15.8-34.7 34.7-34.7h34.3c8.6 59.5 59.5 105.9 121.2 105.9s112.7-46 121.2-105.9h242c8.6 59.5 59.5 105.9 121.2 105.9s112.7-46 121.2-105.9h69.4c18.9 0 34.7 15.8 34.7 34.7v519.2c0 18.9-15.8 34.7-34.7 34.7h-553.8c-18.9 0-34.7-15.8-34.7-34.7v-103.6h-121.2c-25.2 0-36.1-15.8-51.8-34.7l-77.1-137.9s-26.6-37.4-26.6-69.9zM120.1 413.5c0 8.6 7.2 19.8 13.5 29.3l72.6 135.2s7.7 8.1 13.5 8.1h84.7v-173.1h-184.3v0.5z" />
<glyph unicode="&#xe90e;" glyph-name="case-06" d="M84.757-63.971c-0.17-0.001-0.371-0.002-0.572-0.002-46.257 0-83.8 37.305-84.185 83.471v0.037l6.826 857.015c0.45 46.153 37.968 83.394 84.185 83.394 0.181 0 0.363-0.001 0.544-0.002h847.544c0.187 0.001 0.408 0.002 0.629 0.002 46.217 0 83.735-37.241 84.184-83.352v-454.489c-0.859-22.728-19.491-40.826-42.35-40.826s-41.491 18.099-42.348 40.748l-0.002 0.078v454.446h-847.686l-6.769-857.015h371.168c0.46 0.018 0.999 0.028 1.541 0.028 23.059 0 41.753-18.693 41.753-41.753s-18.693-41.753-41.753-41.753c-0.542 0-1.081 0.010-1.618 0.031l0.077-0.002zM910.884-46.906l-94.826 93.29c-30.815-21.676-69.12-34.643-110.454-34.643-0.085 0-0.17 0-0.256 0h0.013c-98.639 3.562-177.251 84.384-177.251 183.566 0 101.443 82.236 183.679 183.679 183.679s183.679-82.236 183.679-183.679c0 0 0-0.001 0-0.001v0c-0.059-36.546-11.14-70.492-30.097-98.705l0.403 0.637 96.703-95.167c6.423-6.214 10.41-14.912 10.41-24.54 0-0.012 0-0.024 0-0.036v0.002c-0.381-19.373-16.175-34.931-35.603-34.931-0.202 0-0.404 0.002-0.606 0.005h0.030c-10.081 0.041-19.19 4.166-25.766 10.805l-0.003 0.003zM587.726 195.306c-0.042-1.17-0.065-2.545-0.065-3.925 0-65 52.693-117.693 117.693-117.693s117.693 52.693 117.693 117.693c0 64.997-52.688 117.688-117.684 117.693v0c-0.548 0.009-1.195 0.015-1.842 0.015-63.137 0-114.468-50.546-115.735-113.38l-0.002-0.118zM229.356 421.819v83.733h330.496v-83.449zM229.356 638.66v83.676h572.026v-83.449z" />
<glyph unicode="&#xe90f;" glyph-name="case-07" d="M871.969 754.699h-98.649v-650.699c0-59.65-75.45-65.349-75.45-65.349h-411.649v-34.099c0-62.499 72.197-68.552 72.197-68.552h516.449c72.501 0 72.152 71.403 72.152 71.403v681.946c0.001 65.349-75.049 65.349-75.049 65.349zM737.768 143.101v749.425c0 0-5.1 67.476-68.901 67.476h-522.247c0 0-69.637-2.101-69.637-67.476v-749.425c0 0 2.899-71.050 72.535-71.050h518.249c59.851-0.001 70.001 71.050 70.001 71.050zM146.619 822.9h313.349v-68.201h-313.349v68.201zM146.619 652.425h522.249v-34.099h-522.249v34.099zM146.619 550.126h522.249v-34.075h-522.249v34.075zM146.619 447.85h522.249v-34.098h-522.249v34.098zM146.619 311.449v34.103h522.249v-34.103h-522.249zM494.769 243.251h174.1v-34.098h-174.1v34.098z" />
<glyph unicode="&#xe910;" glyph-name="case-08" d="M700 692h-456c-4.418 0-8-3.582-8-8v0-40c0-4.418 3.582-8 8-8v0h456c4.418 0 8 3.582 8 8v0 40c0 4.418-3.582 8-8 8v0zM524 540h-280c-4.418 0-8-3.582-8-8v0-40c0-4.418 3.582-8 8-8v0h280c4.418 0 8 3.582 8 8v0 40c0 4.418-3.582 8-8 8v0zM788 852h-632c-17.673 0-32-14.327-32-32v0-728c0-17.673 14.327-32 32-32v0h632c17.673 0 32 14.327 32 32v0 258.13c0 0 0 0 0 0 0 4.418-3.582 8-8 8-0.028 0-0.056 0-0.084 0h0.004c-0.005 0-0.011 0-0.018 0-2.528 0-4.775-1.205-6.199-3.071l-0.014-0.019-38.3-49c-2.114-2.686-3.39-6.118-3.39-9.848 0-0.001 0-0.001 0-0.002v0-180.19h-584v680h584v-157.74c0 0 0 0 0 0 0-4.418 3.582-8 8-8 0.028 0 0.056 0 0.084 0h-0.004c0.005 0 0.011 0 0.018 0 2.528 0 4.775 1.205 6.199 3.071l0.014 0.019 38.3 49c2.114 2.686 3.39 6.118 3.39 9.848 0 0.001 0 0.001 0 0.002v0 127.8c0 17.673-14.327 32-32 32v0zM854 632.76c-0.003 0-0.006 0-0.010 0-2.551 0-4.823-1.194-6.287-3.053l-0.013-0.017-297.61-380.93c-1.776-2.258-2.964-5.055-3.294-8.109l-0.006-0.071-6.72-63.95-0.060-0.53c-0.001-0.030-0.001-0.065-0.001-0.1 0-2.209 1.791-4 4-4 0 0 0.001 0 0.001 0v0c0.388 0.001 0.763 0.056 1.119 0.157l-0.029-0.007 0.52 0.19 60.41 22c2.894 1.073 5.311 2.861 7.114 5.156l0.026 0.034 297.58 380.91c1.057 1.343 1.696 3.060 1.696 4.925 0 2.553-1.196 4.827-3.059 6.292l-0.017 0.013-50.44 39.4c-1.342 1.058-3.056 1.697-4.919 1.7h-0.001z" />
<glyph unicode="&#xe911;" glyph-name="case-09" d="M525.5 398c-66.6 0-129.3 26-176.4 73.1s-73.1 109.8-73.1 176.4 26 129.3 73.1 176.4c47.1 47.1 109.8 73.1 176.4 73.1s129.3-26 176.4-73.1c47.1-47.1 73.1-109.8 73.1-176.4s-26-129.3-73.1-176.4c-47.1-47.1-109.8-73.1-176.4-73.1zM525.5 833c-102.3 0-185.5-83.2-185.5-185.5s83.2-185.5 185.5-185.5 185.5 83.2 185.5 185.5-83.2 185.5-185.5 185.5zM138.4 0.5c-17.7 0-32 14.3-32 32 0 55.3 10.7 108.9 31.8 159.5 20.4 48.8 49.6 92.7 86.9 130.3 37.2 37.7 80.6 67.3 129 87.9 50.1 21.4 103.3 32.3 158.1 32.3 47.1 0 93.2-8.1 137.1-24 42.4-15.4 81.8-37.7 117.1-66.4 13.7-11.2 15.8-31.3 4.6-45s-31.3-15.8-45-4.6c-61.2 49.8-135.2 76.1-213.8 76.1-188.4 0-341.8-155.2-341.8-346 0-17.8-14.3-32.1-32-32.1zM894.3 93.7h-183c-17.7 0-32 14.3-32 32s14.3 32 32 32h183c17.7 0 32-14.3 32-32s-14.4-32-32-32zM802.8 2.2c-17.7 0-32 14.3-32 32v183c0 17.7 14.3 32 32 32s32-14.3 32-32v-183c0-17.6-14.4-32-32-32z" />
<glyph unicode="&#xe912;" glyph-name="channel-01" d="M699.733 226.133c-40.96-58.027-40.96-136.533 6.827-191.147 54.613-64.853 153.6-75.093 218.453-20.48s71.68 153.6 17.067 218.453c-44.373 54.613-122.88 71.68-187.733 40.96l-85.333 102.4c37.547 54.613 34.133 133.12-13.653 180.907l47.787 129.707c47.787 0 95.573 30.72 112.64 75.093 20.48 58.027-10.24 126.293-68.267 146.773s-126.293-10.24-146.773-68.267c-17.067-47.787-3.413-98.987 37.547-129.707l-40.96-116.053c-71.68 23.893-150.187-17.067-177.493-88.747-6.827-20.48-10.24-44.373-6.827-64.853l-85.333-13.653c-27.307 58.027-92.16 92.16-157.013 81.92-78.507-13.653-129.707-88.747-116.053-167.253 6.827-81.92 81.92-133.12 160.427-119.467 64.853 10.24 112.64 64.853 119.467 129.707l98.987 17.067c17.067-23.893 40.96-40.96 68.267-51.2 37.547-13.653 78.507-10.24 112.64 6.827l85.333-98.987zM525.653 386.56c-37.547 13.653-58.027 58.027-44.373 95.573 13.653 40.96 58.027 58.027 95.573 44.373s58.027-58.027 44.373-95.573c-13.653-40.96-58.027-58.027-95.573-44.373v0z" />
<glyph unicode="&#xe913;" glyph-name="clue-01" horiz-adv-x="1025" d="M500.018 959.893c97.355-2.873 195.026-2.733 290.594-25.258 30.301-7.572 55.768-15.969 80.418-25.96l-4.012 1.437c56.052-21.475 93.221-61.797 115.327-117.394 24.523-62.113 33.876-127.028 38.15-193.029 7.287-112.664 6.586-225.294-7.006-337.327-7.778-57.833-18.049-108.285-31.32-157.507l1.962 8.549c-16.605-66.106-60.431-108.601-124.155-131.582-58.049-21.019-118.27-31.529-179.261-37.59-133.123-13.102-265.756-10.86-397.899 10.265-30.443 4.87-60.571 12.086-90.664 18.918-75.004 17.061-122.964 65.020-152.321 134.104-20.144 47.399-26.59 97.6-31.074 148.292-9.599 107.76-11.911 215.695-3.503 323.525 4.064 51.042 9.214 102.505 20.144 152.391 26.87 122.614 102.96 190.822 226.94 210.195 69.127 11.504 148.782 18.078 229.973 18.078 6.225 0 12.442-0.039 18.649-0.116l-0.942 0.009zM716.309 207.852c4.975-4.694 9.249-8.548 13.312-12.612 17.761-17.726 35.278-35.698 53.249-53.214 11.911-11.631 26.029-12.296 35.558-2.557s8.303 23.612-3.153 35.663c-8.863 9.284-18.147 18.182-27.185 27.255l-38.711 38.956c120.336 144.999 88.177 341.812-34.507 446.839-54.937 47.199-126.926 75.936-205.627 75.936-86.006 0-163.997-34.319-221.025-90.009l0.062 0.061c-118.9-115.607-127.763-297.005-20.564-430.058 97.741-121.282 300.403-159.958 448.591-36.259zM239.692 448.595c0 149.448 120.617 269.365 271.221 269.435 147.872 0 268.489-121.387 268.664-270.486-0.299-148.859-121.042-269.418-269.943-269.418-149.085 0-269.943 120.858-269.943 269.943 0 0.185 0 0.369 0.001 0.554v-0.028zM533.614 445.652c0 28.586 0.666 57.208 0 85.794-1.576 54.896-41.128 94.903-92.275 94.377s-89.543-41.163-89.543-96.514c0-15.765-0.631-31.529 0.21-47.259 0.666-12.542-2.417-20.704-14.013-28.446-28.026-18.847-31.88-58.364-10.265-84.814 10.997-13.009 27.326-21.214 45.571-21.214 14.9 0 28.522 5.472 38.967 14.516l-0.075-0.063c24.803 21.37 29.497 63.619 3.959 83.622-19.548 15.309-19.443 31.809-18.988 51.428 0.245 10.51-0.21 21.019 0 31.529 0.094 6.149 0.894 12.066 2.321 17.733l-0.113-0.532c5.71 21.44 24.523 35.032 45.052 33.596 22.386-1.717 39.797-17.516 40.673-40.568 1.436-39.061 0.596-78.192 1.121-117.289 0.35-26.8-0.841-53.915 2.697-80.329 6.166-43.826 49.606-76.756 93.046-73.323 49.045 3.854 84.708 40.427 85.304 87.581 0.245 20.424 0.42 40.883 0 61.272-0.28 12.086 1.401 20.494 13.523 28.411 28.026 18.392 31.809 58.714 10.229 84.779-11.035 12.861-27.306 20.959-45.469 20.959-14.886 0-28.502-5.439-38.968-14.439l0.079 0.066c-25.083-21.79-29.813-63.724-3.994-83.517 20.424-15.66 19.373-33.036 19.233-52.969v-38.536c-0.525-28.026-17.972-46.698-43.44-46.979-26.66-0.28-44.456 18.217-44.771 47.189-0.455 27.886-0.21 55.912-0.245 83.938z" />
<glyph unicode="&#xe914;" glyph-name="contract-01" d="M737.28 519.68c-81.92 0-150.187-68.267-150.187-150.187s68.267-150.187 150.187-150.187c81.92 0 150.187 68.267 150.187 150.187s-68.267 150.187-150.187 150.187v0zM853.333 222.72c-30.72-23.893-71.68-40.96-116.053-40.96s-81.92 17.067-116.053 40.96c-61.44-37.547-102.4-105.813-109.227-184.32 20.48-3.413 58.027-6.827 112.64-6.827h221.867c54.613 0 92.16 3.413 112.64 6.827-3.413 78.507-44.373 146.773-105.813 184.32v0zM549.547 260.267c-3.413 6.827-10.24 13.653-13.653 23.893h-327.68c-13.653 0-20.48 6.827-20.48 20.48s6.827 20.48 20.48 20.48h317.44c-3.413 13.653-3.413 27.307-3.413 40.96 0 27.307 6.827 54.613 17.067 81.92h-331.093c-13.653 0-20.48 6.827-20.48 20.48s6.827 20.48 20.48 20.48h351.573c37.547 47.787 95.573 81.92 163.84 81.92 20.48 0 40.96-3.413 61.44-10.24v215.040c0 47.787-37.547 85.333-85.333 85.333h-552.96c-44.373 0-81.92-34.133-85.333-81.92v-648.533c3.413-44.373 40.96-81.92 85.333-81.92h293.547c10.24 88.747 51.2 160.427 109.227 211.627zM208.213 656.213h221.867c13.653 0 20.48-6.827 20.48-20.48s-6.827-20.48-20.48-20.48h-221.867c-13.653 0-20.48 6.827-20.48 20.48 0 10.24 6.827 20.48 20.48 20.48z" />
<glyph unicode="&#xe915;" glyph-name="cooperation-01" d="M597.333 372.907c-54.613-51.2-85.333-122.88-85.333-197.973 0-78.507 34.133-153.6 92.16-204.8h-570.027v177.493c0 157.013 320.853 235.52 477.867 235.52 23.893-3.413 54.613-6.827 85.333-10.24v0zM512 925.867c133.12 0 238.933-105.813 238.933-238.933s-105.813-238.933-238.933-238.933c-64.853 0-122.88 23.893-170.667 71.68-44.373 44.373-68.267 105.813-68.267 167.253 0 133.12 105.813 238.933 238.933 238.933v0zM853.333 379.733v-136.533h136.533v-136.533h-136.533v-136.533h-136.533v136.533h-136.533v136.533h136.533v136.533z" />
<glyph unicode="&#xe916;" glyph-name="correct-01" d="M512 857.6c-225.28 0-409.6-184.32-409.6-409.6s184.32-409.6 409.6-409.6 409.6 184.32 409.6 409.6-184.32 409.6-409.6 409.6zM740.693 567.467l-286.72-286.72c-6.827-6.827-13.653-10.24-23.893-10.24s-17.067 3.413-23.893 10.24l-122.88 122.88c-13.653 13.653-13.653 34.133 0 47.787s34.133 13.653 47.787 0l98.987-98.987 262.827 262.827c13.653 13.653 34.133 13.653 47.787 0s13.653-34.133 0-47.787z" />
<glyph unicode="&#xe917;" glyph-name="customer-01" d="M853.333 379.733v0 324.267c0 109.227-88.747 197.973-197.973 197.973s-197.973-88.747-197.973-197.973v-512c0-47.787-37.547-85.333-85.333-85.333s-85.333 37.547-85.333 85.333v324.267c78.507 27.307 126.293 109.227 112.64 191.147s-85.333 143.36-167.253 143.36c-81.92 0-153.6-61.44-167.253-143.36-20.48-85.333 27.307-163.84 105.813-191.147v-324.267c0-109.227 88.747-197.973 197.973-197.973s197.973 88.747 197.973 197.973v512c0 47.787 37.547 85.333 85.333 85.333s85.333-37.547 85.333-85.333v-324.267c-78.507-27.307-126.293-109.227-112.64-191.147s85.333-143.36 167.253-143.36c81.92 0 153.6 61.44 167.253 143.36 20.48 85.333-27.307 163.84-105.813 191.147z" />
<glyph unicode="&#xe918;" glyph-name="delete-01" d="M512 857.6c-225.28 0-409.6-184.32-409.6-409.6s184.32-409.6 409.6-409.6 409.6 184.32 409.6 409.6-184.32 409.6-409.6 409.6zM761.173 403.627h-498.347v92.16h501.76v-92.16z" />
<glyph unicode="&#xe919;" glyph-name="details-01" d="M761.173 823.467h-498.347c-44.373 0-81.92-37.547-81.92-81.92v-624.64c0-23.893 20.48-40.96 40.96-40.96 3.413 0 13.653 0 17.067 3.413l252.587 126.293c3.413 3.413 13.653 3.413 17.067 3.413s13.653 0 17.067-3.413l252.587-126.293c13.653-3.413 20.48-3.413 23.893-3.413 20.48 0 40.96 17.067 40.96 40.96v624.64c0 44.373-37.547 81.92-81.92 81.92v0zM624.64 355.84h-228.693c-34.133 0-58.027 23.893-58.027 58.027s23.893 58.027 58.027 58.027h228.693c34.133 0 58.027-23.893 58.027-58.027 0-37.547-23.893-58.027-58.027-58.027v0zM624.64 577.707h-228.693c-34.133 0-58.027 23.893-58.027 58.027s23.893 58.027 58.027 58.027h228.693c34.133 0 58.027-23.893 58.027-58.027s-23.893-58.027-58.027-58.027v0z" />
<glyph unicode="&#xe91a;" glyph-name="disable-01" d="M235.52 516.267h549.547c30.72 0 51.2-23.893 51.2-54.613v-399.36c0-30.72-23.893-54.613-51.2-54.613h-549.547c-30.72 0-51.2 23.893-51.2 54.613v399.36c0 30.72 23.893 54.613 51.2 54.613v0zM481.28 250.027v-85.333c0-6.827 6.827-6.827 6.827-6.827h47.787c6.827 0 6.827 6.827 6.827 6.827v85.333c23.893 13.653 34.133 37.547 34.133 61.44 0 37.547-30.72 64.853-64.853 64.853s-64.853-30.72-64.853-64.853c0-30.72 13.653-47.787 34.133-61.44v0zM645.12 656.213c0 71.68-61.44 139.947-139.947 139.947-71.68 0-139.947-61.44-139.947-139.947v-143.36h-75.093v150.187c0 119.467 95.573 221.867 221.867 221.867 119.467 0 221.867-95.573 221.867-221.867v-180.907h-85.333l-3.413 174.080z" />
<glyph unicode="&#xe91b;" glyph-name="doubt-01" d="M512 857.6c-225.28 0-409.6-184.32-409.6-409.6s184.32-409.6 409.6-409.6 409.6 184.32 409.6 409.6-184.32 409.6-409.6 409.6v0zM552.96 161.28h-81.92v81.92h81.92v-81.92zM638.293 478.72l-37.547-37.547c-30.72-30.72-47.787-54.613-47.787-116.053h-81.92v20.48c0 44.373 17.067 85.333 47.787 116.053l51.2 51.2c13.653 13.653 23.893 34.133 23.893 58.027 0 44.373-37.547 81.92-81.92 81.92s-81.92-37.547-81.92-81.92h-81.92c0 92.16 71.68 163.84 163.84 163.84s163.84-71.68 163.84-163.84c0-37.547-13.653-68.267-37.547-92.16v0z" />
<glyph unicode="&#xe91c;" glyph-name="down-01" d="M512 857.6c-225.28 0-409.6-184.32-409.6-409.6s184.32-409.6 409.6-409.6 409.6 184.32 409.6 409.6-184.32 409.6-409.6 409.6zM669.013 338.773c13.653-13.653 13.653-34.133 0-47.787-6.827-6.827-17.067-10.24-23.893-10.24s-17.067 3.413-23.893 10.24l-109.227 109.227-109.227-109.227c-6.827-6.827-17.067-10.24-23.893-10.24s-17.067 3.413-23.893 10.24c-13.653 13.653-13.653 34.133 0 47.787l109.227 109.227-109.227 109.227c-13.653 13.653-13.653 34.133 0 47.787s34.133 13.653 47.787 0l109.227-109.227 109.227 109.227c13.653 13.653 34.133 13.653 47.787 0s13.653-34.133 0-47.787l-109.227-109.227 109.227-109.227z" />
<glyph unicode="&#xe91d;" glyph-name="drop-01" d="M986.453 656.213c0-13.653-6.827-30.72-17.067-40.96l-416.427-416.427c-10.24-10.24-23.893-17.067-40.96-17.067-13.653 0-30.72 6.827-40.96 17.067l-416.427 419.84c-20.48 20.48-20.48 58.027 0 78.507s58.027 20.48 78.507 0l378.88-378.88 378.88 378.88c17.067 13.653 37.547 17.067 58.027 10.24 20.48-10.24 37.547-27.307 37.547-51.2v0z" />
<glyph unicode="&#xe91e;" glyph-name="edit-01" d="M849.92 574.293l-211.627 211.627 51.2 51.2c30.72 27.307 75.093 27.307 105.813 0l105.813-105.813c27.307-30.72 27.307-75.093 0-105.813l-51.2-51.2zM290.133 38.4h-184.32v180.907c0 20.48 6.827 40.96 23.893 51.2l426.667 436.907 211.627-211.627-430.080-426.667c-6.827-20.48-27.307-30.72-47.787-30.72v0z" />
<glyph unicode="&#xe91f;" glyph-name="enable-01" d="M143.36 512.853h505.173c27.307 0 47.787-20.48 47.787-51.2v-365.227c0-27.307-20.48-51.2-47.787-51.2h-505.173c-27.307 0-47.787 20.48-47.787 51.2v365.227c0 27.307 20.48 51.2 47.787 51.2v0zM368.64 267.093v-78.507c0-6.827 6.827-6.827 6.827-6.827h44.373c6.827 0 6.827 6.827 6.827 6.827v78.507c20.48 10.24 30.72 34.133 30.72 54.613 0 34.133-27.307 61.44-58.027 61.44s-58.027-27.307-58.027-61.44c-3.413-27.307 6.827-40.96 27.307-54.613v0zM846.507 639.147c0 64.853-54.613 126.293-126.293 126.293-64.853 0-126.293-54.613-126.293-126.293v-133.12h-71.68v136.533c0 109.227 88.747 204.8 204.8 204.8 109.227 0 204.8-88.747 204.8-204.8v-133.12h-78.507l-6.827 129.707z" />
<glyph unicode="&#xe920;" glyph-name="error-01" d="M512 857.6c-225.28 0-409.6-184.32-409.6-409.6s184.32-409.6 409.6-409.6 409.6 184.32 409.6 409.6-184.32 409.6-409.6 409.6zM546.133 704l-6.827-361.813h-51.2l-10.24 361.813h68.267zM512 181.76c-27.307 0-47.787 20.48-47.787 47.787s20.48 47.787 47.787 47.787 47.787-20.48 47.787-47.787-20.48-47.787-47.787-47.787z" />
<glyph unicode="&#xe921;" glyph-name="folder-01" d="M856.747 89.6h-686.080c0 0-54.613-6.827-54.613 64.853v587.093c0 0 0 64.853 68.267 64.853h242.347c0 0 30.72 6.827 54.613-30.72s37.547-58.027 37.547-58.027 6.827-10.24 27.307-10.24h307.2c0 0 54.613 6.827 54.613-54.613v-505.173c0 0 6.827-58.027-51.2-58.027v0zM805.547 550.4c0 13.653-13.653 27.307-27.307 27.307h-532.48c-17.067 0-27.307-13.653-27.307-27.307v-3.413c0-17.067 13.653-27.307 27.307-27.307h535.893c13.653 0 23.893 13.653 23.893 30.72v0z" />
<glyph unicode="&#xe922;" glyph-name="home-01" d="M479.999 896l-379.273-223.555 381.738-225.027 379.25 223.555-381.715 225.027zM64 160.316l380.511-224.314v450.099l-380.511 224.314v-450.099zM515.478 383.181v-447.181l380.522 224.314v447.181l-380.522-224.314z" />
<glyph unicode="&#xe923;" glyph-name="home-02" d="M710.4 428.8c-134.4 0-243.2-108.8-243.2-236.8s108.8-243.2 243.2-243.2c134.4 0 243.2 108.8 243.2 243.2-12.8 128-115.2 236.8-243.2 236.8v0zM800 153.6h-121.6c-12.8 0-19.2 12.8-19.2 19.2v121.6c0 12.8 12.8 19.2 19.2 19.2 12.8 0 19.2-12.8 19.2-19.2v-108.8h108.8c12.8 0 19.2 0 19.2-19.2 6.4-19.2-19.2-12.8-25.6-12.8v0zM467.2 192c0 128 108.8 243.2 243.2 243.2 38.4 0 70.4-12.8 102.4-19.2v454.4c0 32-32 57.6-57.6 57.6h-608c-32 0-57.6-32-57.6-57.6v-729.6c0-32 32-57.6 57.6-57.6h352c-19.2 38.4-32 70.4-32 108.8v0zM217.6 761.6h390.4c19.2 0 32-12.8 32-32s-12.8-25.6-32-25.6h-390.4c-19.2 0-32 6.4-32 25.6s12.8 32 32 32zM300.8 294.4h-83.2c-19.2 0-32 12.8-32 32s12.8 32 32 32h83.2c19.2-6.4 25.6-19.2 25.6-38.4s-6.4-25.6-25.6-25.6zM390.4 492.8h-172.8c-19.2 0-32 12.8-32 32s12.8 32 32 32h172.8c19.2 0 32-12.8 32-32-6.4-25.6-12.8-32-32-32z" />
<glyph unicode="&#xe924;" glyph-name="home-03" d="M814.545 890.182h-605.091c-25.706 0-46.545-20.839-46.545-46.545v-791.273c0-25.706 20.839-46.545 46.545-46.545h605.091c25.706 0 46.545 20.839 46.545 46.545v791.273c0 25.706-20.839 46.545-46.545 46.545zM279.271 567.156c-0.062 5.451 2.076 10.697 5.93 14.551s9.1 5.992 14.551 5.929h52.131c5.451-0.063 10.697 2.074 14.551 5.929s5.992 9.1 5.929 14.551v5.585c0.063 5.451-2.074 10.697-5.929 14.551s-9.1 5.992-14.551 5.929h-52.131c-5.451-0.063-10.697 2.074-14.551 5.929s-5.992 9.1-5.93 14.551v5.585c-0.062 5.451 2.076 10.697 5.93 14.551s9.1 5.992 14.551 5.929c6.273 0.033 12.186 2.939 16.044 7.886s5.235 11.389 3.738 17.482l-10.705 42.356c-1.497 6.092-0.12 12.534 3.738 17.482s9.77 7.853 16.044 7.886h4.655c9.321-0.022 17.452-6.335 19.782-15.36l15.36-62.371c2.33-9.025 10.461-15.338 19.782-15.36h14.895c9.321 0.022 17.452 6.335 19.782 15.36l15.36 62.371c2.33 9.025 10.461 15.338 19.782 15.36h4.655c6.273-0.033 12.186-2.939 16.044-7.886s5.235-11.389 3.738-17.482l-10.705-42.356c-1.497-6.092-0.12-12.534 3.738-17.482s9.77-7.853 16.044-7.886c5.451 0.063 10.697-2.074 14.551-5.929s5.992-9.1 5.93-14.551v-5.585c0.062-5.451-2.076-10.697-5.93-14.551s-9.1-5.992-14.551-5.929h-52.131c-5.451 0.063-10.697-2.074-14.551-5.929s-5.992-9.1-5.929-14.551v-5.585c-0.063-5.451 2.074-10.697 5.929-14.551s9.1-5.992 14.551-5.929h52.131c5.451 0.063 10.697-2.074 14.551-5.929s5.992-9.1 5.93-14.551v-5.585c0.062-5.451-2.076-10.697-5.93-14.551s-9.1-5.992-14.551-5.929h-52.131c-5.451 0.063-10.697-2.074-14.551-5.929s-5.992-9.1-5.929-14.551v-52.131c0.063-5.451-2.074-10.697-5.929-14.551s-9.1-5.992-14.551-5.93h-5.585c-5.451-0.062-10.697 2.076-14.551 5.93s-5.992 9.1-5.929 14.551v52.131c0.063 5.451-2.074 10.697-5.929 14.551s-9.1 5.992-14.551 5.929h-52.131c-5.451-0.063-10.697 2.074-14.551 5.929s-5.992 9.1-5.93 14.551v5.585zM721.455 168.727h-418.909c-12.853 0-23.273 10.42-23.273 23.273s10.42 23.273 23.273 23.273h418.909c12.853 0 23.273-10.42 23.273-23.273s-10.42-23.273-23.273-23.273v0zM721.455 308.364h-418.909c-12.853 0-23.273 10.42-23.273 23.273s10.42 23.273 23.273 23.273h418.909c12.853 0 23.273-10.42 23.273-23.273s-10.42-23.273-23.273-23.273zM721.455 448h-116.364c-12.853 0-23.273 10.42-23.273 23.273s10.42 23.273 23.273 23.273h116.364c12.853 0 23.273-10.42 23.273-23.273s-10.42-23.273-23.273-23.273v0zM721.455 541.091h-116.364c-12.853 0-23.273 10.42-23.273 23.273s10.42 23.273 23.273 23.273h116.364c12.853 0 23.273-10.42 23.273-23.273s-10.42-23.273-23.273-23.273v0z" />
<glyph unicode="&#xe925;" glyph-name="home-04" d="M243.484 385.65c-2.958-8.966-4.551-18.569-4.551-28.535v-90.977c0-50.27 40.752-91.022 91.022-91.022h91.022c50.27 0 91.022 40.752 91.022 91.022v90.977c0 10.012-1.593 19.57-4.551 28.581 135.805-36.318 232.107-127.113 232.107-233.335v-68.449c0-24.141-9.59-47.292-26.66-64.362s-40.222-26.66-64.362-26.66h-546.133c-24.141 0-47.292 9.59-64.362 26.66s-26.66 40.222-26.66 64.362v68.449c0 106.223 96.302 197.018 232.107 233.335v-0.046zM863.619 83.137c8.199 13.962 12.505 29.866 12.47 46.057v68.494c0 100.124-90.931 186.596-222.276 226.6 52.565 50.062 85.743 123.654 85.743 205.756 0 49.562-12.106 96.028-33.223 136.078 94.8-7.1 169.756-95.892 169.756-204.345 0-70.77-31.858-133.166-80.418-169.938 126.111-27.307 216.951-103.902 216.951-194.15v-69.040c0-25.135-20.376-45.511-45.511-45.511h-103.492zM375.467 357.114c25.135 0 45.511-20.376 45.511-45.511v-45.511c0-16.26-8.674-31.284-22.755-39.414s-31.43-8.13-45.512 0c-14.081 8.13-22.755 23.155-22.755 39.414v45.511c0 12.070 4.795 23.646 13.33 32.181s20.111 13.33 32.181 13.33v0zM375.467 402.625c-125.656 0-227.556 112.048-227.556 250.22 0 138.217 101.899 250.266 227.556 250.266s227.556-112.048 227.556-250.266c0-138.172-101.899-250.22-227.556-250.22v0z" />
<glyph unicode="&#xe926;" glyph-name="home-05" d="M140.288 954.88c-66.048-13.312-117.76-62.464-132.608-126.976-10.24-42.496-10.24-717.312 0-759.808 12.8-55.296 44.032-90.624 102.912-117.76l25.6-11.776h747.52l30.72 12.288c40.448 16.384 78.848 54.784 95.232 95.232l12.288 30.72v742.4l-12.288 30.72c-16.384 40.448-54.784 78.848-95.232 95.232l-30.72 12.288-360.96 1.024c-198.656 0-370.688-1.536-382.464-3.584zM559.616 774.656c31.232-14.848 66.048-47.104 80.896-75.776 29.184-57.856 19.968-138.752-21.504-184.32-22.528-25.088-38.912-36.352-68.608-48.64l-30.208-12.8h41.472c43.008 0 84.992-10.752 112.128-28.672l13.824-9.216-25.088-10.752c-35.328-15.872-58.368-37.888-75.776-72.704-12.8-25.088-15.36-35.84-15.36-68.096 0-20.992 2.048-44.544 4.608-52.224l4.096-14.336h-181.248c-218.112 0-203.776-4.608-195.584 62.976 14.848 117.248 99.84 193.024 216.576 193.024h38.912l-30.208 12.8c-35.84 14.336-73.216 49.152-90.624 83.456-10.24 20.48-12.288 31.744-12.288 72.704 0 57.856 9.728 81.92 48.64 120.32 49.664 49.152 121.856 61.952 185.344 32.256zM771.072 376.832c74.752-33.792 92.672-136.192 33.28-193.536-25.088-24.064-49.152-34.304-84.48-33.792-51.712 0-93.184 29.696-112.64 80.384-20.992 54.784 9.216 124.928 64 148.48 25.088 10.752 74.752 10.24 99.84-1.536v0zM494.080 413.184c-2.56-2.048-10.24-35.84-15.872-75.264l-11.264-71.68 12.8-16.384c16.384-21.504 27.136-21.504 41.984 0.512l11.776 16.896-10.752 68.608c-13.312 86.528-13.824 87.552-28.672 77.312zM656.896 336.384c-4.608-3.072-6.144-19.456-5.12-62.976l1.536-58.368h133.12l1.536 59.904c1.536 59.904 1.536 59.904-11.264 63.488-6.656 1.536-16.896 0.512-23.040-2.56-7.68-4.608-13.312-4.096-20.992 0.512s-13.824 5.12-25.088 1.024c-8.704-3.584-17.92-4.096-21.504-1.536-9.216 5.632-20.48 5.632-29.184 0.512zM681.472 299.52c0-14.848-2.048-20.48-7.68-20.48s-7.68 5.632-7.68 20.48c0 14.848 2.048 20.48 7.68 20.48s7.68-5.632 7.68-20.48zM727.552 299.52c0-14.848-2.048-20.48-7.68-20.48s-7.68 5.632-7.68 20.48c0 14.848 2.048 20.48 7.68 20.48s7.68-5.632 7.68-20.48zM773.632 299.52c0-14.848-2.048-20.48-7.68-20.48s-7.68 5.632-7.68 20.48c0 14.848 2.048 20.48 7.68 20.48s7.68-5.632 7.68-20.48z" />
<glyph unicode="&#xe927;" glyph-name="home-06" d="M192.931 341.644c0-32.308 19.474-61.429 49.332-73.771s64.21-5.469 87.021 17.409c22.812 22.878 29.583 57.251 17.155 87.072s-41.607 49.21-73.915 49.116c-43.995-0.129-79.593-35.83-79.593-79.826v0zM751.476 634.182c-32.307 0.094-61.486-19.295-73.915-49.116s-5.657-64.194 17.155-87.072c22.812-22.878 57.164-29.75 87.021-17.409s49.332 41.464 49.332 73.771c0 43.996-35.597 79.697-79.593 79.826v0zM744.727 866.909h-465.455c-102.825 0-186.182-83.356-186.182-186.182v-465.455c0-102.825 83.356-186.182 186.182-186.182h465.455c102.825 0 186.182 83.356 186.182 186.182v465.455c0 102.825-83.356 186.182-186.182 186.182zM778.007 424.727v-188.975c0.586-43.739-14.806-86.189-43.287-119.389-27.402-27.607-65.167-42.392-104.029-40.727-38.918-1.563-76.774 12.906-104.727 40.029-29.348 32.916-45.87 75.295-46.545 119.389v450.793c-1.881 14.593-6.626 28.671-13.964 41.425-15.703 26.091-44.815 41.052-75.171 38.633-30.769 2.938-60.481-12.099-76.335-38.633-8.015-14.351-13.005-30.192-14.662-46.545v-209.455c66.951-13.679 112.672-75.829 105.797-143.817s-64.11-119.728-132.445-119.728c-68.335 0-125.57 51.741-132.445 119.728s38.846 130.138 105.797 143.817v213.644c2.381 23.087 9.512 45.431 20.945 65.629 10.635 18.803 25.643 34.769 43.753 46.545 23.46 15.298 50.888 23.388 78.895 23.273 27.501 0.641 54.619-6.542 78.196-20.713 18.311-11.608 33.431-27.608 43.985-46.545 11.367-19.958 18.423-42.077 20.713-64.931v-453.818c0.692-19.561 5.281-38.788 13.498-56.553 14.976-32.718 48.852-52.541 84.713-49.571 24.173-1.799 47.99 6.647 65.629 23.273 18.69 23.001 28.736 51.82 28.393 81.455v191.767c-66.951 13.679-112.672 75.829-105.797 143.817s64.11 119.728 132.445 119.728c68.335 0 125.57-51.741 132.445-119.728s-38.846-130.138-105.797-143.817z" />
<glyph unicode="&#xe928;" glyph-name="home-07" d="M930.135 56.53h-836.265c-4.714 0.003-8.535 3.825-8.535 8.54v0 25.6c0 4.71 3.82 8.53 8.535 8.53h836.265c4.71 0 8.53-3.82 8.53-8.53v-25.6c0-4.71-3.82-8.54-8.53-8.54zM746.665 295.47h-170.66c-0.002 0-0.003 0-0.005 0-4.712 0-8.532 3.818-8.535 8.53v0 25.6c0 4.71 3.82 8.53 8.54 8.53h170.66c4.721 0 8.54-3.82 8.54-8.53v-25.6c0-4.71-3.82-8.53-8.54-8.53zM904.535 839.47h-785.065c-4.716 0-8.535-3.825-8.535-8.535v-665.605c0-4.71 3.82-8.53 8.535-8.53h785.065c4.71 0 8.53 3.82 8.53 8.53v665.605c0 4.71-3.82 8.535-8.53 8.535zM341.335 690.135c51.84 0 93.87-42.025 93.87-93.865s-42.030-93.865-93.87-93.865-93.865 42.025-93.865 93.865 42.025 93.865 93.865 93.865zM247.47 444.8c0 4.716 3.82 8.535 8.535 8.535h170.665c4.716 0 8.535-3.82 8.535-8.535v-25.6c0-4.71-3.82-8.53-8.535-8.53h-170.665c-0.002 0-0.003 0-0.005 0-4.711 0-8.53 3.819-8.53 8.53v0 25.6zM768.154 527.514l-0.148-0.148v-0.246l-16.031-16.026h-0.251l-68.050-68.050c-1.541-1.547-3.673-2.504-6.029-2.504s-4.488 0.957-6.029 2.504v0l-18.109 18.099c-1.542 1.544-2.496 3.676-2.496 6.031s0.954 4.487 2.496 6.031v0l37.888 37.883h-54.139l-212.239-212.239c-1.561-2.139-4.057-3.515-6.875-3.523h-162.136c-0.002 0-0.003 0-0.005 0-4.711 0-8.53 3.819-8.53 8.53v0 25.6c0 4.721 3.82 8.54 8.535 8.54h147.814l212.244 212.244c1.563 2.139 4.061 3.513 6.881 3.517h70.882l-40.31 40.315c-1.546 1.543-2.503 3.677-2.503 6.034s0.957 4.491 2.503 6.034v0l18.099 18.104c1.544 1.545 3.677 2.501 6.034 2.501s4.49-0.956 6.034-2.501l84.47-84.475c1.69-1.69 2.509-3.912 2.488-6.129 0.031-2.294-0.865-4.506-2.488-6.129z" />
<glyph unicode="&#xe92a;" glyph-name="home-08" d="M576 824h-344v-703.422h560v487.422h-184c-17.673 0-32 14.327-32 32v184zM648 794.313v-114.313h114.62l-114.62 114.313zM192 48.578c-17.673 0-32 14.326-32 32v783.422c0 17.673 14.327 32 32 32h442.77c8.472 0 16.598-3.359 22.597-9.342l197.23-196.703c6.020-6.003 9.403-14.155 9.403-22.657v-586.72c0-17.674-14.327-32-32-32h-640zM296 704h208c4.418 0 8-3.582 8-8v-48c0-4.418-3.582-8-8-8h-208c-4.418 0-8 3.582-8 8v48c0 4.418 3.582 8 8 8zM296 576h432c4.418 0 8-3.582 8-8v-48c0-4.418-3.582-8-8-8h-432c-4.418 0-8 3.582-8 8v48c0 4.418 3.582 8 8 8zM400 208c-61.856 0-112 50.144-112 112s50.144 112 112 112v-112h112c0-61.856-50.144-112-112-112zM530 334h-114v114c62.96 0 114-51.040 114-114z" />
<glyph unicode="&#xe92b;" glyph-name="home-09" d="M880 848c-3.8 0-7.7-0.7-11.6-2.3l-576.4-231.6h-164c-8.8 0-16-7.4-16-16.6v-299c0-9.2 7.2-16.6 16-16.6h101.7c-3.7-11.6-5.7-23.9-5.7-36.4 0-65.9 53.8-119.5 120-119.5 55.4 0 102.1 37.6 115.9 88.4l408.6-164.2c3.9-1.5 7.8-2.3 11.6-2.3 16.9 0 32 14.2 32 33.2v733.7c-0.1 19-15.1 33.2-32.1 33.2zM344 197.7c-26.5 0-48 21.4-48 47.8 0 11.2 3.9 21.9 11 30.4l84.9-34.1c-2-24.6-22.7-44.1-47.9-44.1v0zM840 139.3l-534.1 214.6h-121.9v188.2h121.9l12.9 5.2 521.2 209.4v-617.4z" />
<glyph unicode="&#xe92c;" glyph-name="home-10" d="M335.11 565.047v-429.173h-195.079v429.173h195.079zM374.125 643.078h-273.11c-21.546 0-39.016-17.47-39.016-39.016v-507.204c0-21.547 17.469-39.016 39.016-39.016h273.11c21.546 0 39.016 17.469 39.016 39.016v507.204c0 21.546-17.469 39.016-39.016 39.016zM610.049 760.125v-624.251h-195.079v624.251h195.079zM649.064 838.157h-273.11c-21.546 0-39.016-17.47-39.016-39.017v-702.282c0-21.547 17.47-39.016 39.016-39.016h273.11c21.547 0 39.016 17.469 39.016 39.016v702.283c0 21.546-17.469 39.016-39.016 39.016zM883.969 369.968v-234.094h-195.079v234.094h195.079zM922.984 448h-273.11c-21.546 0-39.016-17.47-39.016-39.017v-312.125c0-21.547 17.47-39.016 39.016-39.016h273.11c21.547 0 39.016 17.469 39.016 39.016v312.125c0 21.547-17.469 39.017-39.016 39.017z" />
<glyph unicode="&#xe92d;" glyph-name="home-lawyer-01" d="M491.804 791.609c-200.913 0-363.804-162.892-363.804-363.804s162.892-363.804 363.804-363.804 363.804 162.892 363.804 363.804h-363.804v363.804zM532.196 832v-363.804h363.804c0 200.913-162.892 363.804-363.804 363.804z" />
<glyph unicode="&#xe92e;" glyph-name="home-lawyer-02" d="M756.028 886c62.862 0 113.941-50.438 114.957-113.044l0.015-1.9v-239.19l-2.436-74.715c-39.842 24.135-86.63 38.036-136.68 38.036-145.408 0-263.285-117.334-263.285-262.074 0-96.365 52.25-180.583 130.090-226.112l-123.7 0.82h-303.017c-62.862 0-113.941 50.439-114.957 113.044l-0.015 1.901v648.29c0 62.847 50.45 113.914 113.070 114.929l1.902 0.015h584.056zM346.736 299.781h-131.082c-16.505 0-29.886-13.38-29.886-29.886s13.38-29.885 29.886-29.885h131.082c16.505 0 29.885 13.38 29.885 29.885s-13.38 29.886-29.885 29.886zM434.114 515.877h-218.46c-16.505 0-29.886-13.38-29.886-29.885s13.38-29.886 29.886-29.886h218.46c16.506 0 29.886 13.38 29.886 29.886 0 16.505-13.38 29.885-29.886 29.885zM646.434 731.974l-431.479-0.008c-16.183-0.375-29.187-13.608-29.187-29.878 0-16.505 13.384-29.885 29.893-29.885l431.479 0.008c16.183 0.374 29.187 13.608 29.187 29.877 0 16.506-13.383 29.886-29.893 29.886zM732 461c126.473 0 229-102.527 229-229s-102.527-229-229-229-229 102.527-229 229 102.527 229 229 229zM756.166 357.432c-12.711 0-23.015-10.304-23.015-23.015l-0.001-109.674-66.341-78.529c-7.727-9.7-6.38-23.852 3.156-31.91 9.709-8.203 24.23-6.983 32.434 2.726l68.804 81.427c4.886 4.22 7.978 10.46 7.978 17.424v118.536l-0.009 0.644c-0.341 12.413-10.51 22.371-23.006 22.371z" />
<glyph unicode="&#xe92f;" glyph-name="home-lawyer-03" d="M43.394 950.734c-9.256-4.628-22.562-15.62-28.926-24.298-11.571-15.042-11.571-26.034-13.306-470.92-1.736-503.317-2.893-484.804 34.712-507.945 18.513-10.992 28.348-11.571 300.833-11.571h281.163l-37.026 37.026c-87.936 87.936-106.449 213.476-48.596 330.917 37.604 77.522 122.647 144.631 207.691 164.301 63.638 15.042 145.21 3.471 227.939-31.819 9.256-4.050 9.835 9.256 9.835 229.675 0 215.211-0.579 234.881-10.413 253.394-22.562 42.232 0 40.497-478.441 40.497-370.835 0-430.423-1.157-445.465-9.256zM753.245 689.819c12.728-11.571 13.306-32.397 1.157-44.546-8.099-8.099-39.918-9.256-266.7-9.256-231.989 0-259.179 1.157-269.014 9.835-12.728 11.571-13.306 29.505-0.579 43.389 8.678 9.835 24.877 10.413 266.7 10.413 231.41 0 258.601-1.157 268.436-9.835zM492.909 423.697c12.728-10.992 13.306-30.083 2.314-45.704-7.521-10.413-17.356-10.992-129.011-12.728-115.705-1.736-121.49-1.157-136.532 10.413-18.513 14.463-19.67 30.662-4.050 46.282 10.992 10.992 19.091 11.571 134.218 11.571 105.87 0 123.804-1.157 133.061-9.835zM733.575 402.292c-68.845-18.513-133.061-79.258-155.623-146.945-9.835-28.926-11.571-46.861-9.835-86.779 2.314-61.324 19.091-101.82 59.588-145.21 35.29-37.604 68.266-56.695 119.176-67.687 118.598-27.191 236.617 46.282 269.014 166.615 19.67 75.787 0.579 152.731-53.224 212.319-56.695 63.059-146.945 89.671-229.096 67.687zM763.080 270.388l31.819-56.695 31.819 57.853c31.819 56.695 32.976 57.853 53.803 57.853h20.827l-39.918-70.58-39.918-71.159 33.554-2.893c30.662-2.893 32.976-4.050 32.976-17.356 0-13.885-1.736-14.463-35.869-16.199-31.24-1.736-36.447-3.471-36.447-12.728s5.207-10.992 36.447-12.728 35.869-2.893 35.869-13.306-4.628-11.571-35.869-13.306l-36.447-1.736v-34.133c0-31.819-1.157-34.712-13.885-38.183-21.984-5.207-26.612 1.157-26.612 38.761v34.133h-37.604c-36.447 0-37.604 0.579-37.604 14.463s1.157 14.463 37.604 14.463c33.554 0 37.604 1.157 37.604 11.571s-4.050 11.571-38.183 11.571h-37.604l1.736 16.199c1.736 14.463 3.471 15.62 34.712 17.356l32.976 1.736-16.199 27.191c-8.678 15.042-27.191 47.439-40.497 72.316l-24.877 45.125 21.984-1.736c21.984-1.736 23.141-3.471 53.803-57.853z" />
<glyph unicode="&#xe930;" glyph-name="home-lawyer-04" d="M256.5 959.5h-192.5c-35.3 0-64-28.6-64-64v-895c0-35.3 28.7-64 64-64h192.5c35.3 0 64 28.7 64 64v895c0 35.4-28.7 64-64 64zM128.5 96c0 8.8 3.6 16.8 9.4 22.6s13.8 9.4 22.6 9.4 16.8-3.6 22.6-9.4c5.8-5.8 9.4-13.8 9.4-22.6s-3.6-16.8-9.4-22.6c-5.8-5.8-13.8-9.4-22.6-9.4-17.7 0-32 14.3-32 32zM192.5 328c0-4.4-3.6-8-8-8h-48c-4.4 0-8 3.6-8 8v496c0 4.4 3.6 8 8 8h48c4.4 0 8-3.6 8-8v-496zM608.5 959.5h-192.5c-35.3 0-64-28.6-64-64v-895c0-35.3 28.7-64 64-64h192.5c35.3 0 64 28.7 64 64v895c0 35.4-28.7 64-64 64zM480.5 96c0 8.8 3.6 16.8 9.4 22.6s13.8 9.4 22.6 9.4 16.8-3.6 22.6-9.4c5.8-5.8 9.4-13.8 9.4-22.6s-3.6-16.8-9.4-22.6c-5.8-5.8-13.8-9.4-22.6-9.4-17.7 0-32 14.3-32 32zM544.5 328c0-4.4-3.6-8-8-8h-48c-4.4 0-8 3.6-8 8v496c0 4.4 3.6 8 8 8h48c4.4 0 8-3.6 8-8v-496zM960.5 959.5h-192.5c-35.3 0-64-28.6-64-64v-895c0-35.3 28.7-64 64-64h192.5c35.3 0 64 28.7 64 64v895c0 35.4-28.7 64-64 64zM832.5 96c0 8.8 3.6 16.8 9.4 22.6s13.8 9.4 22.6 9.4 16.8-3.6 22.6-9.4c5.8-5.8 9.4-13.8 9.4-22.6s-3.6-16.8-9.4-22.6c-5.8-5.8-13.8-9.4-22.6-9.4-17.7 0-32 14.3-32 32zM896.5 328c0-4.4-3.6-8-8-8h-48c-4.4 0-8 3.6-8 8v496c0 4.4 3.6 8 8 8h48c4.4 0 8-3.6 8-8v-496z" />
<glyph unicode="&#xe931;" glyph-name="home-lawyer-05" d="M789.562 432.094h-342.043c-28.972 3.246-51.289 27.605-51.289 57.176s22.317 53.93 51.027 57.152l0.261 0.024h342.053c28.972-3.246 51.289-27.605 51.289-57.176s-22.317-53.93-51.027-57.152l-0.261-0.024zM205.227 263.74c0-34.947 22.803-60.35 54.155-60.35s54.155 28.588 54.155 60.35-22.803 60.35-54.155 60.35-54.155-25.404-54.155-60.35zM205.227 489.27c0-34.947 22.803-60.35 54.155-60.35s54.155 28.588 54.155 60.35-22.803 60.35-54.155 60.35-54.155-28.578-54.155-60.34zM789.562 206.554h-342.043c-28.972 3.246-51.289 27.605-51.289 57.176s22.317 53.93 51.027 57.152l0.261 0.024h342.053c28.972-3.246 51.289-27.605 51.289-57.176s-22.317-53.93-51.027-57.152l-0.261-0.024zM1023.294 22.318v714.701c0 85.764-71.255 79.416-71.255 79.416h-401.912c-0.11-0.001-0.24-0.001-0.37-0.001-13.907 0-26.696 4.787-36.809 12.802l0.123-0.094s-17.1 31.742-48.452 82.59c-28.506 57.176-65.531 47.643-65.531 47.643h-310.721c-88.365 0-88.365-92.153-88.365-92.153v-838.596c0-104.83 71.255-92.153 71.255-92.153h889.332c74.112 0.082 62.705 85.856 62.705 85.856z" />
<glyph unicode="&#xe932;" glyph-name="home-lawyer-06" d="M512-63.999c-282.708 0.178-511.82 229.4-511.82 512.133 0 210.753 127.304 391.773 309.209 470.357l3.32 1.277c58.817 25.521 127.32 40.367 199.291 40.367 282.843 0 512.133-229.29 512.133-512.133 0-210.873-127.448-391.978-309.519-470.491l-3.324-1.276c-58.517-25.436-126.679-40.234-198.298-40.234-0.349 0-0.699 0-1.048 0.001h0.055zM327.68 531.456c-11.311 0-20.48-9.169-20.48-20.48v0-247.296c0-11.311 9.169-20.48 20.48-20.48v0h368.64c11.311 0 20.48 9.169 20.48 20.48v0 247.296c0 11.311-9.169 20.48-20.48 20.48v0h-41.933l-90.634 66.959c-0.136 0.12-0.287 0.231-0.446 0.33l-0.014 0.008c-0.181 0.111-0.339 0.229-0.484 0.361l0.003-0.002c0 0.584 0.061 1.178 0.113 1.751s0.113 1.167 0.113 1.751c-0.572 27.648-23.12 49.841-50.852 49.841s-50.279-22.194-50.851-49.788l-0.001-0.053v-0.932c0.004-2.47 0.261-4.879 0.747-7.203l-0.040 0.229-85.647-63.252zM631.521 330.138h-240.24c-7.415 0.029-13.414 6.047-13.414 13.465 0 0.004 0 0.007 0 0.011v-0.001c0.15 7.364 6.057 13.3 13.396 13.496h240.023c0.139 0.005 0.303 0.008 0.467 0.008 7.448 0 13.486-6.038 13.486-13.486s-6.038-13.486-13.486-13.486c-0.085 0-0.17 0.001-0.254 0.002h0.013zM518.144 407.112h-125.952c-7.362 0.046-13.312 6.025-13.312 13.394 0 0.036 0 0.072 0 0.108v-0.006c0.11 7.345 5.983 13.282 13.292 13.496h125.747c0.039 0 0.085 0.001 0.131 0.001 3.799 0 7.232-1.569 9.686-4.093l0.003-0.003c2.253-2.307 3.643-5.465 3.643-8.948 0-0.159-0.003-0.317-0.009-0.475l0.001 0.023c-0.010-7.357-5.895-13.336-13.215-13.496h-0.015zM609.003 531.456h-186.962l52.070 38.123c9.484-10.541 23.154-17.154 38.371-17.203h0.009c0.027 0 0.058 0 0.090 0 16.54 0 31.239 7.884 40.543 20.099l0.091 0.125 55.818-41.134zM512.195 579.339c-12.603 0.145-22.764 10.395-22.764 23.018 0 12.713 10.306 23.019 23.019 23.019 6.344 0 12.088-2.566 16.252-6.717l-0.001 0.001c4.198-4.13 6.8-9.873 6.8-16.223 0-0.031 0-0.063 0-0.094v0.005c-0.098-12.729-10.44-23.010-23.183-23.010-0.043 0-0.087 0-0.13 0h0.007z" />
<glyph unicode="&#xe933;" glyph-name="home-lawyer-07" d="M867.744 757.216c95.216-70.6 156.256-182.621 156.256-308.899 0-0.111 0-0.223 0-0.334v0.017c0-126.4-61.088-238.56-155.36-308.544l-38.016 51.488c78.862 58.86 129.376 151.923 129.376 256.785 0 0.095 0 0.191 0 0.286v-0.015c0 0.072 0 0.157 0 0.243 0 105.272-50.905 198.654-129.442 256.875l-0.862 0.611 38.048 51.488zM772.672 628.512c55.646-41.176 91.328-106.582 91.328-180.321 0-0.067 0-0.134 0-0.201v0.010c0-0.053 0-0.117 0-0.18 0-73.348-35.304-138.45-89.847-179.241l-0.585-0.419-38.048 51.488c39.311 29.44 64.48 75.904 64.48 128.246 0 0.037 0 0.075 0 0.112v-0.006c0 0.035 0 0.076 0 0.117 0 52.734-25.547 99.5-64.94 128.599l-0.437 0.308 38.048 51.488zM64 704h199.68c16.342 0.004 31.252 6.133 42.559 16.216l216.513 192.456c5.623 5.011 13.078 8.073 21.248 8.073 17.673 0 32-14.327 32-32 0-0.003 0-0.006 0-0.009v0-875.488c-0.004-17.67-14.329-31.993-32-31.993-8.835 0-16.833 3.58-22.624 9.369l-214.624 214.624c-11.579 11.583-27.576 18.748-45.247 18.752h-197.505c-35.346 0-64 28.654-64 64v0 352c0 35.346 28.654 64 64 64v0z" />
<glyph unicode="&#xe934;" glyph-name="home-lawyer-08" d="M845.445 339.077c16.376-30.706 57.159-130.156 96.436-230.362l24.471-70.883c-8.533-8.040-10.619-12.705-14.829-14.336-0.85-0.33-1.833-0.521-2.861-0.521-1.203 0-2.345 0.262-3.372 0.731l0.051-0.021-190.085 84.954-84.158-151.324c-3.305-5.849-9.481-9.732-16.565-9.732-8.282 0-15.323 5.309-17.908 12.709l-0.040 0.133-76.079 223.991c122.121-7.661 217.050 43.88 284.937 154.662zM178.935 341.504c65.991-112.792 160.844-165.129 284.558-157.089l-76.079-223.991c-2.625-7.533-9.666-12.842-17.948-12.842-7.083 0-13.26 3.884-16.516 9.638l-0.049 0.094-84.196 151.324-189.743-84.84c-1.027-0.47-2.227-0.744-3.492-0.744-1.089 0-2.131 0.203-3.090 0.574l0.059-0.020c-4.437 1.669-6.675 6.599-14.715 14.715 33.147 87.874 73.538 188.947 121.211 303.18zM504.604 960c195.584 0 354.19-160.92 354.19-359.386 0-198.504-158.606-359.386-354.228-359.386-195.584 0-354.152 160.882-354.152 359.386 0 198.466 158.568 359.386 354.19 359.386zM489.32 814.364l-1.783-2.92-54.158-111.351-121.704-17.939c-9.228-1.385-16.223-9.258-16.223-18.764 0-4.080 1.289-7.86 3.481-10.953l-0.040 0.059 2.238-2.617 88.216-87.23-20.745-122.88c-0.17-0.954-0.267-2.053-0.267-3.174 0-10.473 8.49-18.963 18.963-18.963 2.060 0 4.044 0.329 5.901 0.936l-0.134-0.038 3.148 1.327 108.392 57.799 108.392-57.799c2.581-1.402 5.652-2.226 8.915-2.226 10.376 0 18.805 8.333 18.961 18.671v0.015l-0.265 3.413-20.783 122.88 88.254 87.268c3.493 3.441 5.657 8.223 5.657 13.511 0 8.303-5.337 15.36-12.767 17.928l-0.133 0.040-3.337 0.759-121.666 17.977-54.196 111.351c-3.153 6.353-9.596 10.643-17.040 10.643-6.243 0-11.781-3.017-15.236-7.672l-0.036-0.051z" />
<glyph unicode="&#xe936;" glyph-name="home-lawyer-09" d="M911.52 720.384c0 42.592-33.536 79.616-76.32 79.616h-694.816c-42.88 0-76.384-35.2-76.384-79.616v-88.864h847.52v88.864zM743.872 451.936c65.216 0 122.944-24.064 169.504-66.624v129.6h-849.376v-331.424c0-42.56 33.536-77.76 76.384-77.76h359.456c-7.456 25.92-13.056 53.696-13.056 81.472 1.888 146.24 115.52 264.736 257.056 264.736zM941.28 272.352c-11.168 25.92-26.048 49.984-46.56 70.368-18.624 20.352-42.816 35.168-68.896 48.128-24.128 10.52-52.239 16.64-81.78 16.64-0.072 0-0.143 0-0.215 0h0.011c-29.792 0-57.728-5.536-83.84-16.64-26.048-11.104-48.384-27.776-68.896-48.128-18.624-20.384-35.392-42.56-46.56-70.368-11.2-25.92-16.768-55.52-16.768-85.152 0-31.488 5.6-59.232 16.768-85.152 11.2-25.92 26.080-49.984 46.56-70.368 18.624-20.352 42.848-35.168 68.928-46.272s54.016-16.64 83.84-16.64c29.76 0 55.872 5.536 81.92 16.64 26.080 11.104 48.448 27.776 68.928 46.272 18.624 20.384 35.392 42.592 46.592 70.368 11.168 25.92 16.736 55.52 16.736 85.152s-5.568 59.232-16.736 85.152zM870.528 77.984c-13.056 37.024-48.448 64.8-89.44 64.8v-98.144c0-12.96-11.168-24.064-24.192-24.064-7.456 0-14.912 3.712-20.48 11.104l-132.256 137.024c-5.691 4.18-9.344 10.846-9.344 18.365 0 0.046 0 0.092 0 0.138v-0.007c0 7.392 1.888 12.96 7.456 16.64l137.856 142.592c3.758 3.438 8.783 5.545 14.301 5.545 0.215 0 0.429-0.003 0.642-0.010l-0.031 0.001c13.024 0 24.192-11.104 24.192-24.064v-74.048c59.616 0 108.032-49.984 108.032-112.96 1.888-22.208-5.568-44.416-16.736-62.912z" />
<glyph unicode="&#xe937;" glyph-name="home-lawyer-10" d="M458.2 63.9c1.8 10.8 8 15.9 6.4 20.1-6.7 17.7-9.3 49.7-8 55 11.3 46.3 26.4 61.1 31 66 15.6 16.6 25.1 20 34.3 23 24.5 7.9 44.9 5.9 53.4 9.2 12.8 5 22.7 10.2 33.7 16.5-39.7 33.1-65 82.9-65 138.6 0 99.5 80.7 180.2 180.2 180.2 15.4 0 30.4-1.9 44.7-5.6v296.9c0 17.6-14.4 32-32 32h-605.3c-17.6 0-32-14.4-32-32v-802.8c0-17.6 14.4-32 32-32h324.7s-0.2 21.7 1.9 34.9zM225 851h196v-179.1c-0.7-12.2-14.4-19-24.9-12.8l-76 44.9-69.9-44.5c-10.4-6.6-24.4 0.1-25.1 12.4v179.1zM186.3 529.7c0 17.6 14.4 32 32 32h267.5c17.6 0 32-14.4 32-32s-14.4-32-32-32h-267.5c-17.6 0-32 14.4-32 32zM377 313c0-17.6-14.4-32-32-32h-126.7c-17.6 0-32 14.4-32 32s14.4 32 32 32h126.7c17.6 0 32-14.4 32-32zM218.3 389.3c-17.6 0-32 14.4-32 32s14.4 32 32 32h230.6c17.6 0 32-14.4 32-32s-14.4-32-32-32h-230.6zM599.7 397.4c0-66.771 54.129-120.9 120.9-120.9s120.9 54.129 120.9 120.9v0c0 66.771-54.129 120.9-120.9 120.9s-120.9-54.129-120.9-120.9v0zM917 29h-393c-6.6 0-12 5.4-12 12v2c0 6.6 5.4 12 12 12h393c6.6 0 12-5.4 12-12v-2c0-6.6-5.4-12-12-12zM659 276.5c3-10.2 4.3-32.8 0-42.5-3.9-8.9-17.6-24-26-29-12.5-7.4-23.2-13.3-37.5-18.8-8.5-3.3-28.7-4.2-54.2-7.9-7.8-1.1-19.5-6.4-28.2-22.8-3.2-6-3.5-40-1.1-46.6 1.9-5.2 14-17 14-17h195v224l-83.5-6.5c0 0.2 18.7-23.4 21.5-32.9zM929 155.6c-8.7 16.3-20.4 21.6-28.2 22.8-25.5 3.7-45.6 4.6-54.2 7.9-14.3 5.5-25 11.4-37.5 18.8-8.4 5-22.1 20.1-26 29-4.3 9.7-3 32.3 0 42.5 2.8 9.4 21.5 33 21.5 33l-83.6 6.4v-224h195s12.1 11.8 14 17c2.5 6.6 2.1 40.6-1 46.6z" />
<glyph unicode="&#xe938;" glyph-name="home-lawyer-11" d="M704 768h160v-736h-704v736h160v-64h384v64zM312 423.040l-46.016-46.080 180.992-180.992 317.056 317.056-45.056 44.992-272-271.040-134.976 136.064zM384 768v96h256v-96h-256z" />
<glyph unicode="&#xe939;" glyph-name="increase-01" d="M512 7.68c-242.347 0-440.32 197.973-440.32 440.32s197.973 440.32 440.32 440.32 440.32-197.973 440.32-440.32-197.973-440.32-440.32-440.32v0zM730.453 492.373h-174.080v174.080h-88.747v-174.080h-174.080v-88.747h174.080v-174.080h88.747v174.080h174.080v88.747z" />
<glyph unicode="&#xe93a;" glyph-name="information-01" d="M894.293 734.72c-3.413 20.48-17.067 37.547-37.547 44.373l-320.853 126.293c-13.653 6.827-30.72 6.827-44.373 0l-324.267-126.293c-17.067-6.827-30.72-23.893-37.547-40.96-37.547-163.84-37.547-303.787 3.413-423.253l3.413-3.413v-3.413c61.44-126.293 177.493-232.107 348.16-317.44 17.067-10.24 37.547-10.24 54.613 0l3.413 3.413c170.667 85.333 283.307 191.147 341.333 314.027v0 0c44.373 102.4 47.787 242.347 10.24 426.667zM675.84 342.187h-331.093v75.093h129.707v133.12h-109.227v75.093h290.133v-75.093h-109.227v-129.707h126.293v-78.507z" />
<glyph unicode="&#xe93b;" glyph-name="investigation-01" d="M515.413 335.36c98.987 0 232.107 133.12 232.107 300.373s-85.333 235.52-232.107 235.52-235.52-64.853-235.52-235.52c0-167.253 133.12-300.373 235.52-300.373v0zM969.387 116.907c-10.24 30.72-23.893 61.44-37.547 75.093-23.893 27.307-163.84 98.987-225.28 133.12-17.067 6.827-37.547 3.413-44.373-13.653l-71.68-129.707c-10.24-17.067-37.547-13.653-40.96 6.827 0 3.413 0 10.24 3.413 13.653l17.067 30.72c3.413 6.827 3.413 17.067-3.413 23.893l-30.72 34.133c-6.827 6.827-17.067 10.24-23.893 10.24-10.24 0-20.48-3.413-23.893-10.24l-30.72-34.133c-6.827-6.827-6.827-17.067-3.413-23.893l17.067-30.72c3.413-3.413 3.413-6.827 3.413-13.653-3.413-20.48-30.72-27.307-40.96-6.827l-71.68 129.707c-10.24 17.067-27.307 23.893-44.373 13.653-61.44-30.72-201.387-105.813-225.28-133.12-13.653-13.653-27.307-44.373-37.547-75.093-17.067-44.373 17.067-88.747 61.44-88.747h788.48c47.787-3.413 81.92 44.373 64.853 88.747v0z" />
<glyph unicode="&#xe93c;" glyph-name="iPhone-01" d="M737.28 901.973h-450.56c-34.133 0-64.853-30.72-64.853-64.853v-778.24c0-34.133 30.72-64.853 64.853-64.853h453.973c34.133 0 64.853 30.72 64.853 64.853v778.24c-3.413 34.133-30.72 64.853-68.267 64.853zM512 58.88c-34.133 0-64.853 30.72-64.853 64.853s30.72 64.853 64.853 64.853c34.133 0 64.853-30.72 64.853-64.853 0-37.547-30.72-64.853-64.853-64.853zM706.56 253.44h-389.12v549.547h389.12v-549.547z" />
<glyph unicode="&#xe93d;" glyph-name="lawyer-01" d="M98.987-23.040h822.613c0 170.667-105.813 317.44-252.587 378.88 20.48 13.653 40.96 27.307 58.027 44.373 13.653-13.653 34.133-23.893 58.027-23.893 44.373 0 78.507 34.133 78.507 78.507 0 37.547-27.307 68.267-61.44 78.507 0 3.413 3.413 6.827 3.413 10.24 23.893 13.653 44.373 40.96 44.373 71.68s-17.067 58.027-44.373 71.68c-30.72 129.707-146.773 228.693-279.893 228.693s-245.76-95.573-279.893-225.28c-27.307-10.24-44.373-37.547-44.373-68.267s17.067-54.613 40.96-68.267c0-6.827 3.413-10.24 3.413-17.067-37.547-6.827-68.267-37.547-68.267-78.507 0-44.373 34.133-78.507 78.507-78.507 23.893 0 44.373 10.24 61.44 27.307 17.067-17.067 34.133-30.72 51.2-44.373-157.013-58.027-266.24-208.213-269.653-385.707v0zM334.507 133.973l112.64 197.973c0 3.413 3.413 3.413 6.827 3.413l64.853-37.547c0 0 0 0 3.413-3.413 0 0 0 0 3.413 3.413l64.853 37.547c3.413 0 6.827 0 6.827-3.413l112.64-197.973c0-3.413 0-6.827-3.413-6.827l-64.853-37.547c-3.413 0-6.827 0-6.827 3.413l-112.64 197.973-112.64-201.387c0-3.413-3.413-3.413-6.827-3.413l-64.853 37.547c-3.413 3.413-6.827 6.827-3.413 10.24v0z" />
<glyph unicode="&#xe93e;" glyph-name="lntroduction-01" d="M645.12 540.16c-27.307 0-54.613 10.24-71.68 30.72-20.48 20.48-30.72 44.373-30.72 71.68v157.013c0 10.24 6.827 20.48 17.067 27.307 10.24 3.413 23.893 3.413 30.72-6.827l242.347-232.107c6.827-6.827 10.24-20.48 6.827-30.72s-13.653-17.067-27.307-17.067h-167.253zM843.093 485.547h-221.867c-34.133 0-68.267 13.653-95.573 37.547-23.893 23.893-37.547 58.027-37.547 95.573v204.8c0 3.413 0 3.413 0 6.827h-177.493c-75.093 0-136.533-61.44-136.533-136.533v-498.347c0-75.093 61.44-136.533 136.533-136.533h402.773c75.093 0 136.533 61.44 136.533 136.533v286.72c-3.413 6.827-3.413 3.413-6.827 3.413v0zM669.013 181.76h-317.44c-17.067 0-30.72 13.653-30.72 30.72s13.653 30.72 30.72 30.72h317.44c17.067 0 30.72-13.653 30.72-30.72s-13.653-30.72-30.72-30.72v0zM669.013 308.053h-317.44c-17.067 0-30.72 13.653-30.72 30.72s13.653 30.72 30.72 30.72h317.44c17.067 0 30.72-13.653 30.72-30.72s-13.653-30.72-30.72-30.72v0z" />
<glyph unicode="&#xe93f;" glyph-name="mail-01" d="M160.427 792.747h703.147c47.787 0 88.747-37.547 88.747-85.333l-440.32-238.933-440.32 238.933c0 47.787 40.96 85.333 88.747 85.333v0zM71.68 615.253v-426.667c0-47.787 40.96-85.333 88.747-85.333h703.147c47.787 0 88.747 37.547 88.747 85.333v426.667l-430.080-228.693c-6.827-3.413-13.653-3.413-20.48 0l-430.080 228.693z" />
<glyph unicode="&#xe940;" glyph-name="management-01" d="M471.040 144.213c0 37.547 30.72 68.267 68.267 68.267h54.613c40.96 20.48 44.373 78.507 40.96 105.813-44.373 34.133-68.267 85.333-68.267 139.947 0 98.987 78.507 170.667 177.493 170.667 6.827 0 10.24 0 17.067 0v211.627c0 34.133-27.307 61.44-61.44 61.44h-563.2c-34.133 0-61.44-27.307-61.44-61.44v-768c0-34.133 27.307-61.44 61.44-61.44h334.507v133.12zM215.040 751.787h337.92c17.067 0 30.72-13.653 30.72-30.72s-13.653-30.72-30.72-30.72h-337.92c-17.067 3.413-30.72 13.653-30.72 30.72s13.653 30.72 30.72 30.72v0zM358.4 386.56h-143.36c-17.067 0-30.72 13.653-30.72 30.72s13.653 30.72 30.72 30.72h143.36c17.067 0 30.72-13.653 30.72-30.72 0-13.653-13.653-30.72-30.72-30.72v0zM433.493 540.16h-218.453c-17.067 0-30.72 13.653-30.72 30.72s13.653 30.72 30.72 30.72h218.453c17.067 0 30.72-13.653 30.72-30.72s-13.653-30.72-30.72-30.72v0zM559.787-5.973c-6.827 0-13.653 6.827-13.653 13.653v119.467c0 6.827 6.827 13.653 13.653 13.653h58.027l3.413 3.413c98.987 40.96 88.747 167.253 85.333 191.147v10.24l-10.24 6.827c-34.133 20.48-54.613 54.613-54.613 92.16 0 61.44 47.787 109.227 109.227 109.227h6.827c47.787-3.413 85.333-37.547 98.987-81.92 10.24-44.373-6.827-88.747-44.373-116.053l-10.24-6.827v-13.653c-3.413-37.547-13.653-157.013 85.333-194.56l6.827-3.413h51.2c6.827 0 13.653-6.827 13.653-13.653v-116.053c0-13.653-3.413-13.653-10.24-13.653h-389.12z" />
<glyph unicode="&#xe941;" glyph-name="managements-01" d="M737.28 393.387c3.413-6.827 3.413-17.067 3.413-23.893v-81.92c0-20.48-6.827-40.96-23.893-58.027-13.653-13.653-34.133-23.893-58.027-23.893h-78.507c-20.48 0-40.96 6.827-58.027 23.893-13.653 13.653-23.893 34.133-23.893 58.027v81.92c0 10.24 0 17.067 3.413 23.893-119.467-30.72-204.8-112.64-204.8-208.213v-61.44c0-44.373 37.547-81.92 81.92-81.92h484.693c44.373 0 81.92 37.547 81.92 81.92v61.44c0 95.573-85.333 174.080-208.213 208.213v0zM621.227 366.080c-23.893 0-40.96-17.067-40.96-40.96v-40.96c0-23.893 17.067-40.96 40.96-40.96s40.96 17.067 40.96 40.96v40.96c0 10.24-3.413 20.48-10.24 27.307-10.24 10.24-20.48 13.653-30.72 13.653v0zM621.227 407.040c112.64 0 201.387 98.987 201.387 221.867s-88.747 221.867-201.387 221.867-201.387-98.987-201.387-221.867 92.16-221.867 201.387-221.867v0zM211.627 133.973c-6.827 10.24-10.24 23.893-10.24 40.96v61.44c0 88.747 81.92 163.84 197.973 201.387-47.787 47.787-75.093 112.64-75.093 180.907 0 40.96 10.24 85.333 30.72 122.88-85.333-10.24-153.6-88.747-153.6-184.32 0-58.027 23.893-112.64 71.68-150.187-112.64-23.893-194.56-92.16-194.56-170.667v-61.44c0-23.893 17.067-40.96 40.96-40.96h92.16z" />
<glyph unicode="&#xe942;" glyph-name="market-01" d="M948.907-5.973v754.347h-201.387v201.387h-51.2v-201.387h-201.387v-754.347h-51.2v945.493l-30.72-17.067-317.44-184.32v-3.413h-3.413v3.413-740.693h-85.333v-51.2h1006.933v51.2h-64.853zM194.56 516.267h150.187v-51.2h-150.187v51.2zM344.747 229.547h-150.187v51.2h150.187v-51.2zM344.747 345.6v0h-150.187v51.2h150.187v-51.2zM686.080 215.893h-51.2v402.773h51.2v-402.773zM822.613 215.893h-51.2v402.773h51.2v-402.773z" />
<glyph unicode="&#xe943;" glyph-name="material-01" d="M918.187 185.173v-10.24c0 3.413 0 3.413 0 6.827 0-3.413 0 0 0 3.413v0zM481.28 448l-385.707 180.907c-27.307 13.653-27.307 54.613 0 68.267l382.293 180.907c20.48 10.24 44.373 10.24 64.853 0l385.707-180.907c27.307-13.653 27.307-54.613 0-68.267l-385.707-180.907c-20.48-10.24-44.373-10.24-61.44 0v0zM928.427 413.867l-382.293-184.32c-20.48-10.24-44.373-10.24-64.853 0l-385.707 184.32c-27.307 13.653-27.307 54.613 0 68.267l75.093 37.547 279.893-133.12c20.48-10.24 40.96-13.653 61.44-13.653s40.96 3.413 61.44 13.653l279.893 133.12 78.507-37.547c27.307-13.653 23.893-54.613-3.413-68.267v0zM928.427 198.827l-382.293-184.32c-20.48-10.24-44.373-10.24-64.853 0l-385.707 184.32c-27.307 13.653-27.307 54.613 0 68.267l75.093 34.133 279.893-133.12c20.48-10.24 40.96-13.653 61.44-13.653s40.96 3.413 61.44 13.653l279.893 133.12 78.507-37.547c27.307-10.24 23.893-51.2-3.413-64.853v0z" />
<glyph unicode="&#xe944;" glyph-name="materialList-lawyer-01" d="M843.506 151.277l-70.272-16.629c-36.26-8.597-38.066-7.727-46.864 27.075l-7.159 26.372 145.941 34.591 4.703-17.427c11.086-43.798 15.308-44.112-26.348-53.991v0 0.009zM626.471 529.434c-8.798 34.79-7.601 36.397 28.619 44.995l70.292 16.639c36.22 8.599 38.047 7.696 44.574-18.088l85.454-314.487-145.921-34.57-83.018 305.511zM425.899 129.997c-7.517 0-21.501 7.769-21.501 21.501v558.994h171.999v-558.994c0-15.589-13.291-21.501-21.5-21.501h-128.999zM404.398 774.991c0 10.393 8.692 21.5 21.501 21.5h128.999c12.701 0 21.5-7.506 21.5-21.5v-43h-171.999v43zM167.9 129.997c-7.621 0-21.5 7.192-21.5 21.501v42.999h193.498v-42.999c0-14.089-13.353-21.501-21.5-21.501h-150.499zM146.401 258.996h193.498v-42.999l-193.498 0.819v42.181zM339.899 559.994v-279.498h-193.498v279.498h193.498zM146.401 645.992c0 13.197 7.914 21.5 21.5 21.5h150.499c12.977 0 21.5-5.428 21.5-21.5v-64.499h-193.498v64.499z" />
<glyph unicode="&#xe945;" glyph-name="more-01" d="M406.187 871.253h-300.373c-27.307 0-47.787-20.48-47.787-47.787v-303.787c0-23.893 20.48-44.373 44.373-44.373h303.787c23.893 0 44.373 20.48 44.373 44.373v303.787c3.413 27.307-17.067 47.787-44.373 47.787v0zM873.813 403.627h-303.787c-23.893 0-44.373-20.48-44.373-44.373v-303.787c0-23.893 20.48-44.373 44.373-44.373h303.787c23.893 0 44.373 20.48 44.373 44.373v303.787c3.413 23.893-17.067 44.373-44.373 44.373v0zM942.080 751.787l-245.76 129.707c-20.48 10.24-44.373 3.413-54.613-17.067l-129.707-245.76c-10.24-20.48-3.413-44.373 17.067-54.613l245.76-129.707c20.48-10.24 44.373-3.413 54.613 17.067l129.707 245.76c13.653 20.48 3.413 44.373-17.067 54.613v0zM406.187 403.627h-300.373c-23.893 0-44.373-20.48-44.373-44.373v-303.787c0-23.893 20.48-44.373 44.373-44.373h303.787c23.893 0 44.373 20.48 44.373 44.373v303.787c0 23.893-20.48 44.373-47.787 44.373v0z" />
<glyph unicode="&#xe946;" glyph-name="offline-01" d="M655.36 506.027c-81.92-64.853-201.387-64.853-286.72 0-27.307-23.893-61.44-37.547-95.573-37.547v-310.613h474.453v310.613c-34.133 3.413-68.267 17.067-92.16 37.547v0zM819.2 82.773h-617.813v395.947c-27.307 10.24-51.2 27.307-68.267 51.2l-10.24 13.653 102.4 269.653h576.853l102.4-269.653-10.24-13.653c-10.24-10.24-20.48-20.48-30.72-30.72-13.653-10.24-27.307-17.067-40.96-20.48l-3.413-395.947zM610.987 567.467l-34.133 170.667h-139.947l-30.72-167.253c61.44-51.2 146.773-51.2 204.8-3.413v0zM365.227 738.133h-92.16l-68.267-177.493c40.96-30.72 95.573-23.893 129.707 13.653l30.72 163.84zM750.933 738.133h-92.16l30.72-163.84c34.133-37.547 88.747-44.373 129.707-13.653l-68.267 177.493z" />
<glyph unicode="&#xe947;" glyph-name="omitted-01" d="M904.533 526.507c-44.373 0-78.507-34.133-78.507-78.507s34.133-78.507 78.507-78.507c44.373 0 78.507 34.133 78.507 78.507-3.413 44.373-37.547 78.507-78.507 78.507zM512 526.507c-44.373 0-78.507-34.133-78.507-78.507s34.133-78.507 78.507-78.507 78.507 34.133 78.507 78.507c0 44.373-34.133 78.507-78.507 78.507zM119.467 526.507c-44.373 0-78.507-34.133-78.507-78.507s34.133-78.507 78.507-78.507 78.507 34.133 78.507 78.507c0 44.373-34.133 78.507-78.507 78.507z" />
<glyph unicode="&#xe948;" glyph-name="on1-01" d="M68.267 864.427v-836.267h539.307v836.267h-539.307zM549.547 96.427h-416.427v703.147h416.427v-703.147zM682.667 864.427v-730.453l136.533-105.813 133.12 105.813v730.453h-269.653zM877.227 151.040l-58.027-30.72-58.027 30.72v648.533h116.053v-648.533zM709.973 669.867h245.76v-75.093h-245.76v75.093zM218.453 693.76h221.867v-98.987h-221.867v98.987zM218.453 523.093h221.867v-98.987h-221.867v98.987z" />
<glyph unicode="&#xe949;" glyph-name="operating-01" d="M583.68 89.6c0 40.96-30.72 71.68-71.68 71.68s-71.68-30.72-71.68-71.68c0-40.96 30.72-71.68 71.68-71.68s71.68 30.72 71.68 71.68zM583.68 448c0 40.96-30.72 71.68-71.68 71.68s-71.68-30.72-71.68-71.68 30.72-71.68 71.68-71.68c40.96 0 71.68 30.72 71.68 71.68zM583.68 806.4c0 40.96-30.72 71.68-71.68 71.68s-71.68-30.72-71.68-71.68 30.72-71.68 71.68-71.68c40.96 0 71.68 30.72 71.68 71.68z" />
<glyph unicode="&#xe94a;" glyph-name="organization-01" d="M890.88 352.427h-119.467l-119.467 204.8c27.307 13.653 47.787 47.787 47.787 81.92v187.733c0 51.2-40.96 95.573-95.573 95.573h-187.733c-51.2 0-95.573-40.96-95.573-95.573v-187.733c0-34.133 20.48-61.44 47.787-81.92l-119.467-204.8h-116.053c-51.2 0-95.573-40.96-95.573-95.573v-187.733c0-51.2 40.96-95.573 95.573-95.573h187.733c51.2 0 95.573 40.96 95.573 95.573v61.44h187.733v-61.44c0-51.2 40.96-95.573 95.573-95.573h187.733c51.2 0 95.573 40.96 95.573 95.573v187.733c0 54.613-40.96 95.573-92.16 95.573v0zM416.427 202.24v58.027c0 47.787-37.547 88.747-85.333 95.573l109.227 187.733h136.533l109.227-187.733c-47.787-3.413-85.333-40.96-85.333-95.573v-58.027h-184.32z" />
<glyph unicode="&#xe94b;" glyph-name="password-01" d="M713.387 546.987v102.4c0 112.64-88.747 201.387-201.387 201.387s-201.387-92.16-201.387-201.387v-98.987h402.773zM177.493 482.133v-402.773c0-10.24 3.413-17.067 10.24-23.893s13.653-10.24 23.893-10.24h604.16c17.067 0 34.133 13.653 34.133 34.133v402.773h-672.427zM109.227 499.2v17.067c0 17.067 13.653 34.133 34.133 34.133h98.987v98.987c0 146.773 119.467 269.653 269.653 269.653 146.773 0 269.653-119.467 269.653-269.653v-98.987h98.987c17.067 0 34.133-13.653 34.133-34.133v-467.627c0-37.547-30.72-68.267-68.267-68.267h-669.013c-37.547 0-68.267 30.72-68.267 68.267v450.56zM546.133 314.88v-133.12c0-17.067-13.653-34.133-34.133-34.133-17.067 0-34.133 13.653-34.133 34.133v133.12h-34.133c-10.24 0-17.067 3.413-23.893 10.24s-10.24 13.653-10.24 23.893c0 17.067 13.653 34.133 34.133 34.133h136.533c17.067 0 34.133-13.653 34.133-34.133 0-17.067-13.653-34.133-34.133-34.133h-34.133z" />
<glyph unicode="&#xe94c;" glyph-name="phone-01" d="M829.44 837.12c0 37.547-30.72 64.853-64.853 64.853h-501.76c-37.547 0-64.853-30.72-64.853-64.853v-781.653c0-37.547 30.72-64.853 64.853-64.853h501.76c37.547 0 64.853 30.72 64.853 64.853v781.653zM771.413 55.467c0-6.827-3.413-10.24-10.24-10.24h-498.347c-6.827 0-10.24 3.413-10.24 10.24v781.653c0 6.827 3.413 10.24 10.24 10.24h501.76c6.827 0 10.24-3.413 10.24-10.24l-3.413-781.653zM286.72 192h450.56v631.467h-450.56v-631.467zM344.747 765.44h337.92v-518.827h-337.92v518.827zM474.453 120.32c0-10.24 6.827-20.48 17.067-27.307s20.48-6.827 30.72 0c10.24 6.827 17.067 17.067 17.067 27.307 0 17.067-13.653 30.72-30.72 30.72-20.48 0-34.133-13.653-34.133-30.72v0z" />
<glyph unicode="&#xe94d;" glyph-name="project-02" d="M119.168 634.132l330.501-159.611c16.563-8.146 27.76-24.899 27.761-44.267v0-391.644c-0.022-13.574-11.030-24.569-24.607-24.569-4.416 0-8.56 1.163-12.143 3.2l0.122-0.064-331.863 186.972c-15.032 8.592-25.007 24.517-25.037 42.773v364.983c0 0.004 0 0.008 0 0.013 0 13.587 11.015 24.602 24.602 24.602 3.88 0 7.551-0.898 10.815-2.499l-0.145 0.064v0.046zM182.282 459.412c0-12.335 7.048-23.024 17.336-28.261l0.18-0.083 152.765-76.385c12.165-6.083 26.481 2.765 26.481 16.364 0 12.335-7.048 23.024-17.336 28.261l-0.18 0.083-152.765 76.385c-12.165 6.083-26.481-2.765-26.481-16.364zM521.441 878.592l360.371-152.842c8.119-3.158 13.768-10.911 13.768-19.983s-5.649-16.826-13.622-19.933l-0.146-0.050-360.371-152.888c-5.721-2.498-12.387-3.951-19.392-3.951s-13.671 1.453-19.712 4.075l0.32-0.124-360.366 152.842c-8.146 3.146-13.819 10.914-13.819 20.006s5.673 16.861 13.673 19.957l0.146 0.050 360.366 152.842c5.72 2.5 12.386 3.955 19.392 3.955s13.672-1.455 19.712-4.079l-0.32 0.124zM884.838 634.132c3.12 1.538 6.793 2.437 10.675 2.437 13.575 0 24.582-10.998 24.596-24.57v-365.072c0-0.018 0-0.039 0-0.060 0-18.289-9.98-34.246-24.791-42.724l-0.241-0.127-331.735-186.967c-3.475-1.994-7.639-3.17-12.078-3.17-13.556 0-24.55 10.966-24.596 24.511v391.776c0 0 0 0.001 0 0.001 0 19.379 11.217 36.138 27.512 44.138l0.289 0.128 330.368 159.698z" />
<glyph unicode="&#xe94e;" glyph-name="project-03" d="M318.4 607.2h401.6v89.6h-401.6v-89.6zM696.8 829.6c-13.6 0-24.8-11.2-24.8-24.8s11.2-24.8 24.8-24.8 24.8 11.2 24.8 24.8-11.2 24.8-24.8 24.8zM625.6 829.6c-13.6 0-24.8-11.2-24.8-24.8s11.2-24.8 24.8-24.8 24.8 11.2 24.8 24.8-10.4 24.8-24.8 24.8zM910.4 376.8l54.4 257.6c5.6 27.2-11.2 53.6-38.4 59.2l-118.4 24.8v126.4c0 27.2-22.4 49.6-49.6 49.6h-478.4c-27.2 0-49.6-22.4-49.6-49.6v-34.4l-118.4-24.8c-27.2-5.6-44-32-38.4-59.2l73.6-346.4c-41.6-2.4-75.2-37.6-75.2-79.2v-220c0-44 36-80 80-80h734.4c44 0 80 36 80 80v220c0 35.2-24 65.6-56 76zM280 844.8h478.4v-80h-478.4v80zM122.4 736.8l108 23.2v-117.6l-57.6-12c-2.4-0.8-4.8-3.2-4-5.6l8-39.2c0.8-2.4 3.2-4.8 5.6-4l47.2 10.4v-52.8l-36.8-8c-2.4-0.8-4-3.2-4-5.6l8-39.2c0.8-2.4 3.2-4 5.6-4l26.4 5.6v-107.2h-32l-74.4 356zM273.6 231.2h-42.4c-16 0-28.8 12.8-28.8 28.8s12.8 28.8 28.8 28.8h42.4c16 0 28.8-12.8 28.8-28.8 0-15.2-12.8-28.8-28.8-28.8zM720 380v196.8h-251.2v-288c-12 8-22.4 18.4-31.2 30.4v257.6h-120v-196.8h-37.6v350.4h478.4v-349.6h-38.4zM860 380h-51.2v65.6l26.4-5.6c2.4-0.8 5.6 0.8 5.6 4l11.2 53.6c0.8 2.4-0.8 5.6-4 5.6l-40 8.8v38.4l51.2-11.2c2.4-0.8 5.6 1.6 5.6 4l4.8 22.4c0.8 2.4-1.6 5.6-4 5.6l-57.6 12v84.8l108-23.2-56-264.8z" />
<glyph unicode="&#xe94f;" glyph-name="settle-lawyer-01" d="M801.61 861.52h-579.24c-16.798-0.119-30.37-13.764-30.37-30.579 0-0.011 0-0.022 0-0.032v0.002-768.85c0-0.006 0-0.013 0-0.021 0-16.819 13.577-30.466 30.369-30.579h358.681c-58.214 40.318-95.86 106.759-95.86 181.994 0 0.143 0 0.286 0 0.429v-0.022c0 121.77 98 220.48 218.8 220.48 0.073 0 0.16 0 0.247 0 48.037 0 92.423-15.629 128.351-42.081l-0.598 0.42v438.23c0 0.009 0 0.020 0 0.031 0 16.819-13.577 30.466-30.369 30.579h-0.011zM475.15 295.92c0-0.006 0-0.013 0-0.020 0-6.643-5.363-12.034-11.996-12.080h-140.354c-6.637 0.045-12 5.436-12 12.080 0 0.007 0 0.014 0 0.021v-0.001 52.81c0 0.003 0 0.007 0 0.010 0 6.643 5.363 12.034 11.996 12.080h140.354c6.637-0.045 12-5.436 12-12.080 0-0.004 0-0.007 0-0.011v0.001zM639.51 476.1c0-0.003 0-0.007 0-0.010 0-6.645-5.362-12.039-11.995-12.090h-304.715c-6.638 0.051-12 5.444-12 12.090 0 0.004 0 0.007 0 0.011v-0.001 52.81c0 0.003 0 0.007 0 0.010 0 6.643 5.363 12.034 11.996 12.080h304.714c6.637-0.045 12-5.436 12-12.080 0-0.004 0-0.007 0-0.011v0.001zM713.18 656.28c0-0.003 0-0.007 0-0.010 0-6.643-5.363-12.034-11.996-12.080h-378.384c-6.637 0.045-12 5.436-12 12.080 0 0.004 0 0.007 0 0.011v-0.001 52.81c0 0.003 0 0.007 0 0.010 0 6.643 5.363 12.034 11.996 12.080h378.384c6.637-0.045 12-5.436 12-12.080 0-0.004 0-0.007 0-0.011v0.001zM706.51 384.41c-0.003 0-0.007 0-0.010 0-95.302 0-172.56-77.258-172.56-172.56s77.258-172.56 172.56-172.56c95.302 0 172.56 77.258 172.56 172.56 0 0.003 0 0.007 0 0.010v0c0 95.297-77.253 172.55-172.55 172.55v0zM773.85 196c8.284 0 15-6.716 15-15s-6.716-15-15-15v0h-47.85v-59.3c0-8.284-6.716-15-15-15s-15 6.716-15 15v0 59.3h-47.84c-8.284 0-15 6.716-15 15s6.716 15 15 15v0h47.84v34h-47.84c-8.284 0-15 6.716-15 15s6.716 15 15 15v0h26.64l-21.8 21.78c-2.545 2.682-4.11 6.316-4.11 10.315 0 8.284 6.716 15 15 15 3.992 0 7.619-1.559 10.307-4.102l36.803-36.823 36.53 36.54c2.715 2.716 6.466 4.396 10.61 4.396 8.285 0 15.001-6.716 15.001-15.001 0-4.141-1.678-7.891-4.391-10.605v0l-21.53-21.5h26.63c8.284 0 15-6.716 15-15s-6.716-15-15-15v0h-47.85v-34z" />
<glyph unicode="&#xe950;" glyph-name="settle-lawyer-02" d="M832 832c35.346 0 64-28.654 64-64v0-640c0-35.346-28.654-64-64-64v0h-640c-35.346 0-64 28.654-64 64v0 640c0 35.346 28.654 64 64 64v0h640zM695.531 356.352l-2.432-2.197-31.403-31.403-29.803 29.803c-5.797 5.828-13.822 9.435-22.69 9.435-17.673 0-32-14.327-32-32 0-7.71 2.726-14.782 7.268-20.307l-0.044 0.056 2.197-2.432 29.824-29.803-28.949-28.949c-5.76-5.786-9.321-13.765-9.321-22.575 0-17.673 14.327-32 32-32 7.658 0 14.687 2.69 20.195 7.176l-0.058-0.046 2.432 2.197 28.949 28.949 30.528-30.549c5.795-5.815 13.811-9.413 22.668-9.413 17.673 0 32 14.327 32 32 0 7.709-2.726 14.782-7.267 20.306l0.044-0.056-2.197 2.432-30.507 30.528 31.381 31.381c5.828 5.797 9.435 13.822 9.435 22.69 0 17.673-14.327 32-32 32-7.71 0-14.782-2.726-20.307-7.268l0.056 0.044zM438.101 363.435c-5.792 5.795-13.794 9.38-22.635 9.38s-16.843-3.585-22.634-9.38l-105.6-105.6c-5.793-5.793-9.376-13.795-9.376-22.635 0-17.679 14.331-32.010 32.010-32.010 8.839 0 16.842 3.583 22.635 9.376l105.6 105.6c5.795 5.792 9.38 13.794 9.38 22.635s-3.585 16.843-9.38 22.634v0zM362.155 704c-16.591-0.001-30.232-12.627-31.84-28.795l-0.011-0.133-0.149-3.072v-44.395h-42.155c-17.666-0.009-31.984-14.332-31.984-32 0-16.586 12.618-30.224 28.778-31.84l0.134-0.011 3.072-0.149h42.155v-40.939c0.009-17.666 14.332-31.984 32-31.984 16.586 0 30.224 12.618 31.84 28.778l0.011 0.134 0.149 3.072v40.939h43.179c17.666 0.009 31.984 14.332 31.984 32 0 16.586-12.618 30.224-28.779 31.84l-0.134 0.011-3.072 0.149h-43.179v44.395c0 17.673-14.327 32-32 32v0zM736 627.605h-149.333c-17.666-0.009-31.984-14.332-31.984-32 0-16.586 12.618-30.224 28.778-31.84l0.134-0.011 3.072-0.149h149.333c17.673 0 32 14.327 32 32s-14.327 32-32 32v0z" />
<glyph unicode="&#xe951;" glyph-name="settle-lawyer-03" d="M726.4 896c16 0 32-12.8 32-32v-416h86.4c28.8 0 44.8-32 25.6-54.4l-342.4-368c-12.8-12.8-35.2-12.8-48 0l-342.4 368c-19.2 22.4-6.4 54.4 22.4 54.4h86.4v416c0 16 12.8 32 32 32zM361.6 796.8c-9.6-9.6-9.6-22.4 0-32l99.2-99.2h-96c-12.8-3.2-25.6-12.8-25.6-28.8s12.8-28.8 25.6-28.8h108.8v-54.4h-134.4c-16 0-28.8-12.8-28.8-28.8s12.8-28.8 28.8-28.8h137.6v-108.8c0-16 12.8-28.8 28.8-28.8s28.8 12.8 28.8 28.8v108.8h137.6c16 0 28.8 12.8 28.8 28.8s-19.2 28.8-32 28.8h-137.6v54.4h108.8c16 0 28.8 12.8 28.8 28.8s-12.8 25.6-28.8 25.6h-96l99.2 99.2c9.6 9.6 9.6 25.6 0 35.2s-25.6 9.6-35.2 0l-105.6-105.6-105.6 105.6c-9.6 9.6-25.6 9.6-35.2 0z" />
<glyph unicode="&#xe952;" glyph-name="settlement-01" d="M964.25 844.493h-904.499c-27.75 0-50.227-22.477-50.227-50.227v-569.549c0-27.75 22.477-50.227 50.227-50.227h904.55c27.75 0 50.227 22.477 50.227 50.227v569.498c0 27.75-22.528 50.278-50.278 50.278zM672.41 554.65v-74.65h-116.685v-24.832h116.685v-74.65h-116.685v-88.883h-82.022v88.883h-129.178v74.701h129.229v24.832h-129.229v74.598h100.915l-91.494 172.544h81.971l80.845-152.422 80.845 152.422h81.971l-91.546-172.544h84.378z" />
<glyph unicode="&#xe953;" glyph-name="settlement-02" d="M404.511 359.134c-4.042-2.044-8.603-3.223-13.447-3.223-11.197 0-20.935 6.17-26.045 15.279l-1.96 4.297-81.566 178.973c-0.88 1.955-1.431 4.147-1.431 6.285 0 8.252 6.686 14.944 14.938 14.944 3.351 0 6.442-1.108 8.942-2.967l96.243-68.522c7.037-4.61 15.434-7.305 24.464-7.305 5.401 0 10.534 1.003 15.328 2.752l452.645 201.459c-81.127 95.619-214.757 158.116-365.975 158.116-247.449 0-448.035-167.158-448.035-373.361 0-112.511 60.354-213.776 154.809-282.215 7.583-5.405 12.538-14.293 12.538-24.325 0-3.312-0.712-6.359-1.57-9.516-7.545-28.15-19.626-73.202-20.189-75.314-0.94-3.529-2.416-7.22-2.416-10.918 0-8.246 6.692-14.933 14.944-14.933 3.251 0 5.89 1.202 8.63 2.779l98.086 56.622c7.377 4.266 15.189 6.899 23.791 6.899 4.577 0 9.003-0.703 13.174-1.978 45.755-13.16 95.123-20.476 146.24-20.476 247.439 0 448.042 167.162 448.042 373.373 0 62.451-18.502 121.275-51.033 173.009l-519.147-299.735z" />
<glyph unicode="&#xe954;" glyph-name="star-01" d="M580.267 867.84l92.16-184.32c10.24-20.48 30.72-37.547 54.613-40.96l204.8-30.72c61.44-10.24 85.333-85.333 40.96-126.293l-146.773-143.36c-17.067-17.067-23.893-40.96-20.48-64.853l34.133-201.387c10.24-61.44-54.613-105.813-109.227-78.507l-184.32 92.16c-20.48 10.24-47.787 10.24-68.267 0l-180.907-95.573c-58.027-27.307-119.467 17.067-109.227 78.507l34.133 201.387c3.413 23.893-3.413 47.787-20.48 64.853l-146.773 143.36c-44.373 44.373-20.48 119.467 40.96 126.293l204.8 30.72c23.893 3.413 44.373 17.067 54.613 40.96l88.747 187.733c27.307 54.613 109.227 54.613 136.533 0v0z" />
<glyph unicode="&#xe955;" glyph-name="start-01" d="M512 878.080c-238.933 0-430.080-191.147-430.080-430.080s191.147-430.080 430.080-430.080c238.933 0 430.080 191.147 430.080 430.080s-191.147 430.080-430.080 430.080zM406.187 260.267v375.467l283.307-187.733-283.307-187.733z" />
<glyph unicode="&#xe956;" glyph-name="stop-01" d="M901.12 673.28c-40.96 68.267-95.573 122.88-163.84 163.84s-143.36 61.44-225.28 61.44c-81.92 0-157.013-20.48-225.28-61.44s-122.88-95.573-163.84-163.84c-40.96-68.267-61.44-143.36-61.44-225.28s20.48-157.013 61.44-225.28c40.96-68.267 95.573-122.88 163.84-163.84s143.36-61.44 225.28-61.44c81.92 0 157.013 20.48 225.28 61.44s122.88 95.573 163.84 163.84c40.96 68.267 61.44 143.36 61.44 225.28s-20.48 157.013-61.44 225.28zM651.947 321.707c0-3.413 0-6.827-3.413-10.24s-6.827-3.413-10.24-3.413h-252.587c-3.413 0-6.827 0-10.24 3.413s-3.413 6.827-3.413 10.24v252.587c0 3.413 0 6.827 3.413 10.24s6.827 3.413 10.24 3.413h252.587c3.413 0 6.827 0 10.24-3.413s3.413-6.827 3.413-10.24v-252.587z" />
<glyph unicode="&#xe957;" glyph-name="table-01" d="M150.187 854.187h276.48c23.893 0 44.373-20.48 44.373-44.373v-276.48c0-23.893-20.48-44.373-44.373-44.373h-276.48c-23.893 0-44.373 20.48-44.373 44.373v276.48c0 23.893 20.48 44.373 44.373 44.373v0zM150.187 407.040h276.48c23.893 0 44.373-20.48 44.373-44.373v-276.48c0-23.893-20.48-44.373-44.373-44.373h-276.48c-23.893 0-44.373 20.48-44.373 44.373v276.48c0 23.893 20.48 44.373 44.373 44.373v0zM597.333 854.187h276.48c23.893 0 44.373-20.48 44.373-44.373v-276.48c0-23.893-20.48-44.373-44.373-44.373h-276.48c-23.893 0-44.373 20.48-44.373 44.373v276.48c0 23.893 20.48 44.373 44.373 44.373v0zM573.44 41.813c-13.653 0-23.893 10.24-23.893 23.893v204.8c0 13.653 10.24 23.893 23.893 23.893s23.893-10.24 23.893-23.893v-204.8c0-13.653-10.24-23.893-23.893-23.893v0zM682.667 41.813c-13.653 0-23.893 10.24-23.893 23.893v204.8c0 13.653 10.24 23.893 23.893 23.893s23.893-10.24 23.893-23.893v-204.8c-3.413-13.653-13.653-23.893-23.893-23.893v0zM894.293 41.813c-13.653 0-23.893 10.24-23.893 23.893v320.853c0 13.653 10.24 23.893 23.893 23.893s23.893-10.24 23.893-23.893v-320.853c0-13.653-10.24-23.893-23.893-23.893v0zM788.48 41.813c-13.653 0-23.893 10.24-23.893 23.893v320.853c0 13.653 10.24 23.893 23.893 23.893s23.893-10.24 23.893-23.893v-320.853c0-13.653-10.24-23.893-23.893-23.893v0z" />
<glyph unicode="&#xe958;" glyph-name="task-02" d="M930.304 878.519h-89.088v-113.737c0-57.49-45.202-104.083-100.974-104.083-55.771 0-100.973 46.592-100.973 104.083v113.737h-257.354v-113.737c0-57.49-45.202-104.083-100.937-104.083-55.808 0-101.010 46.592-101.010 104.083v113.737h-86.345c-49.934-0.207-90.333-40.734-90.333-90.696 0-0.090 0-0.181 0-0.271v0.014-750.153c0-0.065 0-0.143 0-0.22 0-50.001 40.461-90.552 90.428-90.697h836.622c49.98 0.146 90.44 40.696 90.44 90.697 0 0.077 0 0.155 0 0.232v-0.012 750.153c0 0.076 0 0.166 0 0.256 0 50-40.46 90.551-90.426 90.697h-0.014zM740.644 501.175l-249.928-266.496c-7.751-8.343-18.768-13.56-31.004-13.605h-0.008c-11.41 0-22.345 4.718-30.428 13.020l-148.225 155.756c-9.436 8.332-15.357 20.457-15.357 33.965 0 4.153 0.559 8.174 1.607 11.994l-0.074-0.318c4.389 16.676 17.738 29.22 34.304 32.182 16.494 2.89 33.207-4.352 42.716-18.578l114.907-123.172 220.6 236.873c7.118 5.698 16.255 9.145 26.197 9.145 11.821 0 22.505-4.873 30.151-12.72l0.009-0.009c15.323-15.47 17.261-40.229 4.535-58.003zM740.207 954.88c25.16 0 45.568-20.919 45.568-46.738v-140.764c0-25.82-20.407-46.701-45.568-46.701-25.198 0-45.568 20.882-45.568 46.701v140.8c0 25.82 20.37 46.739 45.568 46.739zM280.943 954.88c25.197 0 45.604-20.919 45.604-46.738v-140.764c0-25.82-20.407-46.701-45.604-46.701-25.161 0-45.568 20.882-45.568 46.701v140.8c0 25.82 20.407 46.702 45.568 46.702z" />
<glyph unicode="&#xe959;" glyph-name="task-lawyer-01" d="M718.257 408.615c-15.512-133-76.459-249.468-166.657-335.55l-0.215-0.204v335.754h166.873zM721.605 487.385h-170.22v179.397c46.74 3.658 89.833 11.108 131.461 22.158l-5.076-1.146c25.852-58.988 41.77-127.576 43.798-199.639l0.017-0.77zM797.479 408.615h145.979c1.128 11.803 1.771 25.518 1.771 39.385s-0.643 27.582-1.902 41.12l0.13-1.735h-143.065c-2.010 81.374-19.191 158.2-48.805 228.503l1.544-4.129c30.138 11.462 54.65 22.604 78.389 35.024l-3.992-1.902c-19.37 20.543-40.471 39.027-63.213 55.373l-1.299 0.888c-14.828-6.715-29.873-12.879-45.135-18.452-7.278 8.966-18.299 14.648-30.647 14.648-20.489 0-37.323-15.645-39.209-35.64l-0.012-0.157c-27.539-7.003-60.477-12.567-94.155-15.557l-2.475-0.177v133.652c-11.803 1.128-25.518 1.771-39.385 1.771s-27.582-0.643-41.12-1.902l1.735 0.13v-135.7c-58.124 1.955-113.304 11.246-165.696 26.982l4.594-1.185c-3.439 1.088-7.395 1.715-11.496 1.715-21.752 0-39.385-17.633-39.385-39.385 0-17.95 12.008-33.095 28.429-37.841l0.278-0.069c54.438-16.573 117.244-27.042 182.19-29.001l1.086-0.026v-177.566h-392.074c-1.128-11.803-1.771-25.518-1.771-39.385s0.643-27.582 1.902-41.12l-0.13 1.735h392.074v-392.074c11.757-1.119 25.42-1.758 39.232-1.758 37.677 0 74.245 4.749 109.138 13.682l-3.040-0.66c98.597 99.182 164.299 231.161 179.314 378.144l0.221 2.666zM512-64c-282.782 0-512 229.218-512 512s229.218 512 512 512 512-229.218 512-512-229.218-512-512-512z" />
<glyph unicode="&#xe95a;" glyph-name="task-lawyer-02" horiz-adv-x="1081" d="M123.392 177.664h289.28v-49.664c9.728-9.728 24.064-9.728 33.792 0l57.856 58.368c7.68 7.168 7.68 23.552-2.048 31.232l-57.856 58.368c-9.728 9.728-24.064 9.728-33.792 0v-49.664h-287.232c-9.728 0-15.872-6.656-15.872-15.872v-15.872c0-10.752 6.144-16.896 15.872-16.896zM738.304 424.96c74.24 45.568 123.904 126.976 123.904 219.648 0.512 141.824-115.2 257.536-257.024 257.536s-257.024-115.712-257.024-257.536c0-93.184 50.176-174.592 123.904-219.648-92.672-28.672-173.056-87.040-229.888-165.376h138.24v29.184l9.728 9.728c11.264 11.264 24.064 15.872 39.936 15.872s29.184-6.656 39.936-15.872l57.856-58.368c22.528-22.528 22.528-58.368 0-78.848l-59.392-56.32c-11.264-11.264-24.064-15.872-39.936-15.872-5.632 0-10.752 1.536-15.872 3.072v-8.192c0-14.336-5.12-27.648-15.872-37.376l-51.2-51.712s-1.536-1.536-3.072-1.536h713.216c0 198.144-128.512 372.736-317.44 431.616zM605.184 814.080c-9.728 0-15.872 6.656-15.872 15.872 0 9.728 6.656 15.872 15.872 15.872 9.728 0 15.872-6.656 15.872-15.872 0.512-9.728-6.144-15.872-15.872-15.872zM664.576 802.304c-8.192 3.072-12.8 13.312-9.728 20.992 3.072 8.192 13.312 13.312 20.992 9.728 67.072-24.064 116.224-83.968 128.512-154.624 5.12-27.648 3.072-54.784-3.072-82.432-2.56-6.144-9.216-10.752-15.36-10.752h-3.072c-8.192 1.536-14.336 11.776-11.264 19.456 5.12 22.528 6.656 46.592 1.536 69.12-10.24 59.392-51.712 109.056-108.544 128.512zM375.296 96.768l-51.2 51.712c-7.68 8.192-20.48 8.192-28.672 0.512l-0.512-0.512v-43.52h-253.952c-8.192-1.536-14.336-8.192-14.336-16.384v-14.336c0-7.68 6.144-14.336 13.824-14.336h254.464v-43.52c7.68-8.192 20.48-8.192 28.672-0.512l0.512 0.512 51.2 51.712c8.192 7.68 8.192 20.48 0 28.672z" />
<glyph unicode="&#xe95b;" glyph-name="task-lawyer-03" d="M730.896 911c101.678 0 184.104-82.426 184.104-184.104v-517.792c0-101.678-82.426-184.104-184.104-184.104h-517.792c-101.678 0-184.104 82.426-184.104 184.104v517.792c0 101.678 82.426 184.104 184.104 184.104h517.792zM282.143 443.836c-53.381 0-96.655-43.273-96.655-96.654s43.274-96.655 96.655-96.655c53.38 0 96.654 43.274 96.654 96.655s-43.273 96.654-96.654 96.654zM282.143 397.81c27.961 0 50.628-22.667 50.628-50.628s-22.667-50.629-50.628-50.629c-27.962 0-50.629 22.667-50.629 50.629s22.667 50.628 50.629 50.628zM770.018 377.1h-266.95c-16.523 0-29.917-13.395-29.917-29.917s13.394-29.917 29.917-29.917h266.95c16.523 0 29.917 13.394 29.917 29.917s-13.394 29.917-29.917 29.917zM395.23 699.886c-8.585 9.052-22.882 9.43-31.934 0.845l-94.88-89.987-48.192 48.192c-8.937 8.936-23.426 8.936-32.362 0-8.937-8.937-8.937-23.426 0-32.362l59.546-59.546c0.974-0.975 2.034-1.862 3.169-2.65l0.076-0.050c0.425-0.526 0.834-0.991 1.26-1.44l-0.010 0.010c8.584-9.051 22.882-9.43 31.934-0.845l110.51 104.812c9.25 8.774 9.76 23.344 1.143 32.742-0.099 0.108-0.184 0.199-0.269 0.289l0.009-0.010zM770.018 660.158h-266.95c-16.523 0-29.917-13.394-29.917-29.916s13.394-29.917 29.917-29.917h266.95c16.523 0 29.917 13.394 29.917 29.917s-13.394 29.916-29.917 29.916z" />
<glyph unicode="&#xe95c;" glyph-name="task-lawyer-04" d="M960 874.667c0 36.267-27.733 64-64 64h-768c-36.267 0-64-27.733-64-64v-853.333c0-36.267 27.733-64 64-64h768c36.267 0 64 27.733 64 64v853.333zM266.667 185.6c-23.467 0-42.667 19.2-42.667 42.667s19.2 42.667 42.667 42.667 42.667-19.2 42.667-42.667-19.2-42.667-42.667-42.667zM266.667 390.4c-23.467 0-42.667 19.2-42.667 42.667s19.2 42.667 42.667 42.667 42.667-19.2 42.667-42.667-19.2-42.667-42.667-42.667zM266.667 597.333c-23.467 0-42.667 19.2-42.667 42.667s19.2 42.667 42.667 42.667 42.667-19.2 42.667-42.667-19.2-42.667-42.667-42.667zM772.267 213.333h-384c-12.8 0-21.333 10.667-21.333 21.333 0 12.8 8.533 21.333 21.333 21.333h384c10.667 0 21.333-8.533 21.333-21.333 0-10.667-10.667-21.333-21.333-21.333zM772.267 426.667h-384c-12.8 0-21.333 10.667-21.333 21.333s8.533 21.333 21.333 21.333h384c10.667 0 21.333-10.667 21.333-21.333s-10.667-21.333-21.333-21.333zM772.267 640h-384c-12.8 0-21.333 8.533-21.333 21.333s8.533 21.333 21.333 21.333h384c10.667 0 21.333-8.533 21.333-21.333s-10.667-21.333-21.333-21.333z" />
<glyph unicode="&#xe95d;" glyph-name="template-01" d="M583.68 864.427l-460.8-88.747c-6.827 0-13.653-10.24-13.653-17.067v-621.227c0-6.827 6.827-13.653 13.653-17.067l460.8-88.747c0 0 3.413 0 3.413 0 3.413 0 6.827 0 10.24 3.413s6.827 6.827 6.827 13.653v798.72c0 3.413-3.413 10.24-6.827 13.653s-10.24 3.413-13.653 3.413v0zM416.427 297.813l-37.547 68.267c-10.24 13.653-17.067 30.72-27.307 47.787h-3.413c-10.24-17.067-17.067-34.133-23.893-47.787l-34.133-61.44-71.68 3.413 95.573 143.36-88.747 133.12 75.093 3.413 34.133-58.027c6.827-13.653 13.653-27.307 23.893-44.373h3.413c6.827 17.067 13.653 34.133 20.48 47.787l30.72 61.44 71.68 3.413-88.747-153.6 95.573-157.013-75.093 10.24zM880.64 765.44h-245.76v-116.053h34.133v-34.133h-34.133v-81.92h34.133v-34.133h-34.133v-85.333h34.133v-34.133h-34.133v-98.987h34.133v-34.133h-34.133v-116.053h245.76c17.067 0 34.133 13.653 34.133 34.133v566.613c0 17.067-13.653 34.133-34.133 34.133v0zM832.853 246.613h-133.12v34.133h133.12v-34.133zM832.853 379.733h-133.12v34.133h133.12v-34.133zM832.853 499.2h-133.12v34.133h133.12v-34.133zM832.853 615.253h-133.12v34.133h133.12v-34.133z" />
<glyph unicode="&#xe95e;" glyph-name="timer-01" d="M256.416 868.16c7.241-7.239 11.719-17.24 11.719-28.288s-4.479-21.049-11.719-28.288l-124.448-124.448c-7.251-7.315-17.303-11.844-28.412-11.844-22.091 0-40 17.909-40 40 0 11.105 4.526 21.154 11.833 28.401l124.451 124.467c7.239 7.241 17.24 11.719 28.288 11.719s21.049-4.479 28.288-11.719v0zM767.584 868.16c7.239 7.241 17.24 11.719 28.288 11.719s21.049-4.479 28.288-11.719l124.448-124.464c7.162-7.226 11.588-17.174 11.588-28.156 0-22.091-17.909-40-40-40-10.986 0-20.938 4.429-28.167 11.599l-124.445 124.445c-7.236 7.238-11.711 17.236-11.711 28.28s4.475 21.042 11.712 28.28v0zM512 832c212.080 0 384-171.92 384-384s-171.92-384-384-384-384 171.92-384 384 171.92 384 384 384zM560 440.8v191.2c0 22.091-17.909 40-40 40s-40-17.909-40-40v0-208c0-12.352 5.6-23.408 14.4-30.736l99.744-99.744c7.226-7.162 17.174-11.588 28.156-11.588 22.091 0 40 17.909 40 40 0 10.986-4.429 20.938-11.599 28.167l-90.701 90.717z" />
<glyph unicode="&#xe95f;" glyph-name="trade-lawyer-01" d="M266.7 622.9c27.9 0 50.6 27.8 50.6 62.2v69.8c0 34.3-22.6 62.2-50.6 62.2-27.9 0-50.6-27.8-50.6-62.2v-69.8c0.1-34.4 22.7-62.2 50.6-62.2zM609.2 306.1c52.2 52.2 138 51.9 190.8 0.7 2.1 0.6 67.2 57.6 67.2 57.6l-0.3 321.5c0 60.9-54.9 57-54.9 57h-28s0.1-57 0-99.4c-0.1-42.4-41.4-42.9-41.4-42.9s-40.4 0.1-85.7 0c-45.3-0.1-43.2 42.3-43.2 42.3v99.9h-259.4v-98.9c0-44.3-43-43.3-43-43.3s-43-0.1-85 0-42.6 43.4-42.6 43.4v98.8h-28.3c-53.9 0-57.1-56.8-57.1-56.8s0.1-492.6 0.1-549.1 57.2-57 57.2-57h496l-34.7 38.2c-52.9 52.7-60.4 135.2-7.7 188zM699 622.9c27.9 0 50.6 27.8 50.6 62.2v69.8c0 34.3-24.5 62.2-52.5 62.2-27.9 0-48.7-27.8-48.6-62.2v-69.8c0-34.4 22.6-62.2 50.5-62.2zM915.5 247.7c-19.7 19.8-55.4 16.1-79.7-8.2l-39.6-39.7-37.2 41.1c-24.3 24.3-59.9 27.9-79.7 8.2-19.7-19.8-16.1-55.5 8.2-79.7l67.2-67.3c1.8-1.8 3.8-3.6 5.8-5.2 1.2-1.5 2.4-3 3.8-4.4 13.5-13.5 30.7-16.1 50.3-8.6 2.1 0.7 4.1 1.6 6.1 2.7 6.9 3.4 13.6 8.1 19.5 14.1l67.2 67.3c24.2 24.2 27.9 59.9 8.1 79.7z" />
<glyph unicode="&#xe960;" glyph-name="trade-lawyer-02" horiz-adv-x="1142" d="M938.979 911.059h-161.248c-7.618 33.011-38.090 58.405-73.641 58.405h-79.989c-10.157 25.393-34.281 41.899-62.214 41.899s-52.057-16.506-62.214-41.899h-81.259c-35.551 0-66.023-25.393-73.641-58.405h-161.248c-41.899 0-73.641-34.281-73.641-76.18v-820.208c0-41.899 33.011-76.18 73.641-76.18h754.185c41.899 0 77.45 34.281 77.45 76.18v820.208c1.27 41.899-34.281 76.18-76.18 76.18zM563.156 874.238c34.281 0 60.944-27.933 60.944-60.944 0-34.281-27.933-60.944-60.944-60.944-34.281 0-60.944 27.933-60.944 60.944s26.663 60.944 60.944 60.944zM795.506 243.212c0-15.236-12.697-27.933-27.933-27.933h-408.834c-15.236 0-27.933 12.697-27.933 27.933v25.393c0 15.236 12.697 27.933 27.933 27.933h408.834c15.236 0 27.933-12.697 27.933-27.933v-25.393zM795.506 500.955c0-15.236-12.697-27.933-27.933-27.933h-408.834c-15.236 0-27.933 12.697-27.933 27.933v25.393c0 15.236 12.697 27.933 27.933 27.933h408.834c15.236 0 27.933-12.697 27.933-27.933v-25.393z" />
<glyph unicode="&#xe961;" glyph-name="trade-lawyer-03" d="M846.4 332c-1.5 1.3-3.1 2.6-4.7 3.9-5.8 4.6-11.8 8.8-18.2 12.6-4.9 3-10 5.8-15.2 8.2-3.4 1.6-6.8 3.1-10.3 4.5-8.2 3.2-16.6 5.9-25.4 7.9-2 0.4-4.1 0.7-6.2 1.1-10.1 1.9-20.4 3.1-31 3.1-95.6 0-173.1-77.5-173.1-173.1 0-10.6 1.3-20.9 3.1-31 0.4-2.2 0.7-4.3 1.2-6.5 2-9 4.7-17.8 8.1-26.2 1.2-3.1 2.7-6 4.1-9 2.7-5.8 5.8-11.4 9.1-16.9s7-10.6 10.9-15.7c2.5-3.2 5-6.3 7.7-9.3 31.7-35.6 77.4-58.5 128.8-58.5 55.2 0 103.7 26.3 135.4 66.5 23.2 29.5 37.6 66.1 37.6 106.6 0.2 53.1-24.2 100-61.9 131.8zM638.7 211.7l61 64.1c1.5 1.6 3.4 2.3 5.3 2.3 3.8 0 7.4-2.9 7.4-7.4v-38.7h0.7c63.2 0 115.2-48.2 121.1-109.9h-1.1c-9.3 35.4-59.4 62.4-120 62.4h-0.7v-42.1c0-4.5-3.6-7.4-7.4-7.4-1.9 0-3.8 0.7-5.3 2.3l-61 64.1c-2.7 3-2.7 7.5 0 10.3zM515.2 97.4l-0.7 1.5-0.1 0.2c-1.8 3.8-3.5 7.6-4.9 11.2-4.8 11.9-8.7 24.4-11.6 37.2-0.6 2.6-1.1 5.2-1.7 9-2.9 15.7-4.3 30-4.3 43.7 0 134.3 109.2 243.5 243.5 243.5 13.9 0 28.3-1.4 44.8-4.5 2.5-0.4 5-0.9 7.8-1.5 12-2.7 24.1-6.4 35.5-11 5-1.9 9.7-4.1 15-6.5 3.4-1.6 6.7-3.6 10-5.4v327c0 8.8-7.1 15.9-15.9 15.9h-162.8v22.3c0 8.9-7.2 16.1-16.1 16.1h-88.9c-4.8 24.6-26.4 43.1-52.3 43.1-26 0-47.5-18.5-52.3-43.1h-77.2c-8.9 0-16.1-7.2-16.1-16.1v-22.3h-174.8c-8.8 0-15.9-7.1-15.9-15.9v-663.1c0-8.8 7.1-15.9 15.9-15.9h343.5c-2.5 3.6-5.5 7.4-7.5 10.8-4.7 7.7-9.1 15.7-12.9 23.8zM512.4 764.4c19.5 0 35.2-15.8 35.2-35.2 0-19.5-15.8-35.2-35.2-35.2-19.5 0-35.2 15.8-35.2 35.2s15.8 35.2 35.2 35.2zM275.3 589c0 8.9 7.2 16.1 16.1 16.1h240.4c8.9 0 16.1-7.2 16.1-16.1v-38.3c0-8.9-7.2-16.1-16.1-16.1h-240.4c-8.9 0-16.1 7.2-16.1 16.1v38.3zM477.2 400.6c0-8.9-7.2-16.1-16.1-16.1h-169.7c-8.9 0-16.1 7.2-16.1 16.1v38.3c0 8.9 7.2 16 16.1 16h169.8c8.9 0 16.1-7.2 16.1-16v-38.3z" />
<glyph unicode="&#xe962;" glyph-name="trade-lawyer-04" d="M796.444-64h-568.889c-62.838 0-113.778 50.94-113.778 113.778v0 739.556c0 62.838 50.94 113.778 113.778 113.778v0h113.778v-170.667h341.333v170.667h113.778c62.838 0 113.778-50.94 113.778-113.778v0-739.556c0-62.838-50.94-113.778-113.778-113.778v0zM625.778 448h-291.328l112.356 112.356c5.358 5.18 8.684 12.431 8.684 20.46 0 15.709-12.735 28.444-28.444 28.444-8.029 0-15.28-3.326-20.452-8.676l-160.947-160.89c-5.146-5.147-8.328-12.257-8.328-20.11s3.183-14.963 8.328-20.11l160.882-160.882c5.11-4.94 12.080-7.985 19.761-7.985 15.709 0 28.444 12.735 28.444 28.444 0 7.681-3.044 14.651-7.992 19.769l-112.291 112.291h291.328c62.833-0.006 113.767-50.944 113.767-113.778s-50.934-113.772-113.767-113.778h-341.334v-56.889h341.333c94.251 0.007 170.654 76.415 170.654 170.667s-76.403 170.659-170.653 170.667h-0.001zM568.889 789.333h-113.778c-31.419 0-56.889 25.47-56.889 56.889v56.889c0 31.419 25.47 56.889 56.889 56.889v0h113.778c31.419 0 56.889-25.47 56.889-56.889v0-56.889c0-31.419-25.47-56.889-56.889-56.889v0z" />
</font>
</defs>
</svg>
